<svg xmlns="http://www.w3.org/2000/svg" xmlns:xlink="http://www.w3.org/1999/xlink" width="375.232" height="409.483" viewBox="0 0 375.232 409.483">
  <defs>
    <clipPath id="clip-path">
      <path id="Path_19552" data-name="Path 19552" d="M1161,0V362.972s-100.637,46.511-194.445,46.511-180.787-46.511-180.787-46.511V0Z" transform="translate(-785.768 -26)" fill="#1172ba"/>
    </clipPath>
  </defs>
  <g id="Group_29193" data-name="Group 29193" transform="translate(0.232 13.483)">
    <path id="Path_19356" data-name="Path 19356" d="M1161,0V362.972s-100.637,46.511-194.445,46.511-180.787-46.511-180.787-46.511V0Z" transform="translate(-786 -13.483)" fill="#0f5699"/>
    <g id="Mask_Group_1888" data-name="Mask Group 1888" transform="translate(-0.232 12.517)" clip-path="url(#clip-path)">
      <g id="Insurance-pana" transform="translate(30.647 92.597)">
        <g id="freepik--background-complete--inject-58" transform="translate(22.958 28.38)">
          <rect id="Rectangle_8984" data-name="Rectangle 8984" width="53.206" height="101.524" rx="5.21" transform="translate(0 128.142) rotate(-26.88)" fill="#ebebeb"/>
          <circle id="Ellipse_225" data-name="Ellipse 225" cx="3.886" cy="3.886" r="3.886" transform="matrix(0.83, -0.558, 0.558, 0.83, 15.781, 136.696)" fill="#fafafa"/>
          <circle id="Ellipse_226" data-name="Ellipse 226" cx="3.898" cy="3.898" r="3.898" transform="matrix(0.937, -0.349, 0.349, 0.937, 36.711, 125.541)" fill="#fafafa"/>
          <path id="Path_19357" data-name="Path 19357" d="M75.489,287.761a3.886,3.886,0,1,1-5.227-1.709A3.886,3.886,0,0,1,75.489,287.761Z" transform="translate(-41.332 -133.007)" fill="#fafafa"/>
          <circle id="Ellipse_227" data-name="Ellipse 227" cx="3.886" cy="3.886" r="3.886" transform="translate(46.85 150.033) rotate(-88.06)" fill="#fafafa"/>
          <path id="Path_19358" data-name="Path 19358" d="M91.516,319.392a3.886,3.886,0,1,1-5.227-1.685A3.886,3.886,0,0,1,91.516,319.392Z" transform="translate(-47.854 -145.879)" fill="#fafafa"/>
          <path id="Path_19359" data-name="Path 19359" d="M125.52,302.141a3.886,3.886,0,1,1-5.221-1.709A3.886,3.886,0,0,1,125.52,302.141Z" transform="translate(-61.681 -138.856)" fill="#fafafa"/>
          <path id="Path_19360" data-name="Path 19360" d="M107.537,351a3.886,3.886,0,1,1-2.258-1.941A3.886,3.886,0,0,1,107.537,351Z" transform="translate(-54.366 -158.723)" fill="#fafafa"/>
          <path id="Path_19361" data-name="Path 19361" d="M141.549,333.761a3.886,3.886,0,1,1-5.227-1.709A3.886,3.886,0,0,1,141.549,333.761Z" transform="translate(-68.199 -151.716)" fill="#fafafa"/>
          <path id="Path_19362" data-name="Path 19362" d="M58.911,254.61a22.543,22.543,0,0,1-1.038,3.512,22.476,22.476,0,0,1-1.323,3.411,42.773,42.773,0,0,1,2.361-6.924Z" transform="translate(-36.62 -120.39)" fill="#e0e0e0"/>
          <path id="Path_19363" data-name="Path 19363" d="M92.171,237.44a21.181,21.181,0,0,1-1.032,3.512,21.633,21.633,0,0,1-1.329,3.417,21.581,21.581,0,0,1,1.038-3.512,22.719,22.719,0,0,1,1.323-3.417Z" transform="translate(-50.147 -113.407)" fill="#e0e0e0"/>
          <path id="Path_19364" data-name="Path 19364" d="M75.526,286.18a44.216,44.216,0,0,1-1.976,7.214,22.428,22.428,0,0,1,.86-3.643A23.023,23.023,0,0,1,75.526,286.18Z" transform="translate(-43.534 -133.23)" fill="#e0e0e0"/>
          <path id="Path_19365" data-name="Path 19365" d="M109.327,268.93a41.973,41.973,0,0,1-1.637,7.025,20.992,20.992,0,0,1,.664-3.56,21.576,21.576,0,0,1,.973-3.465Z" transform="translate(-57.419 -126.214)" fill="#e0e0e0"/>
          <path id="Path_19366" data-name="Path 19366" d="M90.563,317.81a19.04,19.04,0,0,1-.765,3.346,19.429,19.429,0,0,1-1.068,3.269,18.766,18.766,0,0,1,.771-3.346A19.121,19.121,0,0,1,90.563,317.81Z" transform="translate(-49.708 -146.094)" fill="#e0e0e0"/>
          <path id="Path_19367" data-name="Path 19367" d="M125.165,301a19.193,19.193,0,0,1-1.032,3.328,20.419,20.419,0,0,1-1.323,3.228,19.193,19.193,0,0,1,1.032-3.328A20.724,20.724,0,0,1,125.165,301Z" transform="translate(-63.569 -139.257)" fill="#e0e0e0"/>
          <path id="Path_19368" data-name="Path 19368" d="M107.145,349.76a22.24,22.24,0,0,1-1.121,3.465,21.869,21.869,0,0,1-1.424,3.352,21.143,21.143,0,0,1,1.133-3.459A20.793,20.793,0,0,1,107.145,349.76Z" transform="translate(-56.163 -159.089)" fill="#e0e0e0"/>
          <path id="Path_19369" data-name="Path 19369" d="M141.334,331.47a24.922,24.922,0,0,1-.819,3.88,25.3,25.3,0,0,1-1.115,3.8,25.77,25.77,0,0,1,.819-3.88A25.308,25.308,0,0,1,141.334,331.47Z" transform="translate(-70.316 -151.65)" fill="#e0e0e0"/>
          <path id="Path_19370" data-name="Path 19370" d="M139.826,351.639c.036.077-6.135,3.281-13.782,7.155s-13.883,6.959-13.924,6.888,6.135-3.281,13.782-7.161S139.785,351.562,139.826,351.639Z" transform="translate(-59.221 -159.852)" fill="#e0e0e0"/>
          <path id="Path_19371" data-name="Path 19371" d="M72.336,225c.036.077-6.135,3.281-13.782,7.161s-13.883,6.959-13.924,6.882,6.152-3.311,13.782-7.191S72.295,224.891,72.336,225Z" transform="translate(-31.772 -108.346)" fill="#e0e0e0"/>
          <path id="Path_19372" data-name="Path 19372" d="M69.514,243.252a.249.249,0,0,1-.107,0H69.36l.273-.142h0a.149.149,0,0,1-.095.16c-.095.042-.154.03-.178,0h0l.273-.142h0a.148.148,0,0,1,0,.042A.232.232,0,0,1,69.514,243.252Z" transform="translate(-41.83 -115.713)" fill="#e0e0e0"/>
          <path id="Path_19373" data-name="Path 19373" d="M107.505,312.039c-.077.042-8.739-16.9-19.347-37.828S69.013,236.276,69.09,236.24s8.733,16.885,19.347,37.828S107.6,312,107.505,312.039Z" transform="translate(-41.72 -112.919)" fill="#e0e0e0"/>
          <path id="Path_19374" data-name="Path 19374" d="M36.812,372.281c-.071,13.29-.119,34.749-.142,44.609a5.269,5.269,0,0,0,5.251,5.28l36.3.166a5.28,5.28,0,0,0,5.3-5.251l.2-44.218A11.718,11.718,0,0,0,72.066,361.1h0v-6.526l-23.773-.107v6.146H48.2a11.706,11.706,0,0,0-11.391,11.664Z" transform="translate(-28.535 -161.004)" fill="#f5f5f5"/>
          <path id="Path_19375" data-name="Path 19375" d="M56.3,355.9l-.018,2.96,23.767.949.024-3.8Z" transform="translate(-36.51 -161.586)" fill="#e0e0e0"/>
          <path id="Path_19376" data-name="Path 19376" d="M1.774,0H27.552a1.78,1.78,0,0,1,1.78,1.78v8.9a1.145,1.145,0,0,1-1.145,1.145H1.145A1.145,1.145,0,0,1,0,10.679V1.78A1.78,1.78,0,0,1,1.78,0Z" transform="translate(17.105 184.401) rotate(0.26)" fill="#f5f5f5"/>
          <path id="Path_19377" data-name="Path 19377" d="M57.8,351.137c-.172,0-.3-2.634-.285-5.874s.166-5.874.338-5.874.3,2.628.285,5.874S57.988,351.137,57.8,351.137Z" transform="translate(-37.014 -154.871)" fill="#e0e0e0"/>
          <path id="Path_19378" data-name="Path 19378" d="M63.1,351.157c-.172,0-.3-2.628-.285-5.874s.166-5.874.338-5.874.3,2.634.285,5.88S63.276,351.157,63.1,351.157Z" transform="translate(-39.169 -154.879)" fill="#e0e0e0"/>
          <path id="Path_19379" data-name="Path 19379" d="M68.384,351.187c-.172,0-.3-2.634-.285-5.874s.166-5.874.338-5.874.3,2.628.285,5.874S68.556,351.187,68.384,351.187Z" transform="translate(-41.317 -154.891)" fill="#e0e0e0"/>
          <path id="Path_19380" data-name="Path 19380" d="M73.664,351.207c-.172,0-.3-2.628-.285-5.874s.166-5.874.338-5.874.3,2.634.285,5.874S73.836,351.207,73.664,351.207Z" transform="translate(-43.464 -154.9)" fill="#e0e0e0"/>
          <path id="Path_19381" data-name="Path 19381" d="M78.944,351.237c-.172,0-.3-2.634-.285-5.88s.166-5.874.338-5.868.3,2.628.285,5.874S79.116,351.237,78.944,351.237Z" transform="translate(-45.611 -154.912)" fill="#e0e0e0"/>
          <path id="Path_19382" data-name="Path 19382" d="M84.224,351.257c-.172,0-.3-2.634-.285-5.874s.166-5.874.338-5.874.3,2.628.285,5.874S84.4,351.257,84.224,351.257Z" transform="translate(-47.759 -154.92)" fill="#e0e0e0"/>
          <path id="Path_19383" data-name="Path 19383" d="M89.5,351.277c-.172,0-.3-2.628-.285-5.874s.166-5.874.338-5.874.3,2.634.285,5.879S89.682,351.283,89.5,351.277Z" transform="translate(-49.906 -154.928)" fill="#e0e0e0"/>
          <path id="Path_19384" data-name="Path 19384" d="M94.8,351.307c-.172,0-.3-2.634-.285-5.874s.166-5.874.338-5.874.3,2.628.285,5.874A29.231,29.231,0,0,1,94.8,351.307Z" transform="translate(-52.062 -154.94)" fill="#e0e0e0"/>
          <rect id="Rectangle_8985" data-name="Rectangle 8985" width="34.061" height="22.527" rx="1.48" transform="translate(14.895 217.704) rotate(0.26)" fill="#ebebeb"/>
          <path id="Path_19385" data-name="Path 19385" d="M80.8,417.21a2.023,2.023,0,0,1,0-.374v-1.05c0-.967,0-2.29-.042-3.951,0-3.441-.042-8.306-.065-14.18l.243.249-29.848-.071.309-.308h0v5.138c0,1.691,0,3.358-.03,5,0,3.269-.042,6.419-.059,9.416l-.285-.291,21.418.237,6.176.107,1.661.042.593.036a2.87,2.87,0,0,1-.534.036h-1.6l-6.111.053-21.614.042h-.285v-19.84h0c-.279.279.38-.38.314-.309l29.854.2h.225v.285c-.077,5.933-.148,10.857-.2,14.334,0,1.638-.059,2.966-.077,3.9a8.276,8.276,0,0,1-.036,1,1.436,1.436,0,0,1-.012.309Z" transform="translate(-34.222 -178.375)" fill="#e0e0e0"/>
          <path id="Path_19386" data-name="Path 19386" d="M79.86,408.364c0,.178-4.545.3-10.145.267s-10.145-.184-10.145-.356,4.545-.291,10.151-.267S79.86,408.192,79.86,408.364Z" transform="translate(-37.848 -182.777)" fill="#e0e0e0"/>
          <path id="Path_19387" data-name="Path 19387" d="M79.835,414.18c0,.172-4.539.291-10.145.267s-10.139-.19-10.139-.362,4.539-.291,10.145-.267S79.84,414.008,79.835,414.18Z" transform="translate(-37.84 -185.141)" fill="#e0e0e0"/>
          <path id="Path_19388" data-name="Path 19388" d="M79.811,419.754c0,.172-4.545.291-10.145.267s-10.145-.184-10.145-.356,4.545-.291,10.145-.267S79.811,419.588,79.811,419.754Z" transform="translate(-37.828 -187.41)" fill="#e0e0e0"/>
          <path id="Path_19389" data-name="Path 19389" d="M78.822,365.049c0,.172-4.954.285-11.071.261s-11.071-.19-11.071-.362,4.96-.291,11.077-.261S78.822,364.871,78.822,365.049Z" transform="translate(-36.673 -165.158)" fill="#e0e0e0"/>
          <path id="Path_19390" data-name="Path 19390" d="M39.886,420.879a12.318,12.318,0,0,1-.107-2.094c0-1.454-.036-3.376-.059-5.707,0-4.818,0-11.474.053-18.825.036-3.672.071-7.167.1-10.365a20.6,20.6,0,0,1,1.412-8.383,9.2,9.2,0,0,1,3.785-4.284,6.618,6.618,0,0,1,1.459-.593,1.982,1.982,0,0,1,.546-.077,13.549,13.549,0,0,0-1.851.86,9.3,9.3,0,0,0-3.56,4.272,21.342,21.342,0,0,0-1.187,8.187c0,3.144-.036,6.692-.053,10.365-.053,7.351-.142,14.008-.231,18.819-.059,2.332-.107,4.26-.142,5.707A13.858,13.858,0,0,1,39.886,420.879Z" transform="translate(-29.775 -167.544)" fill="#fff"/>
          <path id="Path_19391" data-name="Path 19391" d="M83.862,462.852a9.6,9.6,0,0,1-1.632-.516c-.51-.19-1.139-.415-1.887-.635s-1.578-.522-2.527-.753a58.139,58.139,0,0,0-6.7-1.436,63.342,63.342,0,0,0-8.359-.653,61.928,61.928,0,0,0-8.365.593,58.518,58.518,0,0,0-6.716,1.37c-.949.225-1.78.51-2.533.73s-1.376.433-1.893.623a9.117,9.117,0,0,1-1.632.5,8.807,8.807,0,0,1,1.543-.73c.5-.22,1.127-.475,1.869-.718s1.572-.593,2.527-.831a51.616,51.616,0,0,1,6.746-1.5,58.213,58.213,0,0,1,8.448-.635,57.73,57.73,0,0,1,8.448.706,52.685,52.685,0,0,1,6.734,1.578c.949.261,1.78.593,2.516.848s1.365.516,1.863.742a8.715,8.715,0,0,1,1.549.718Z" transform="translate(-30.548 -203.217)" fill="#fff"/>
          <path id="Path_19392" data-name="Path 19392" d="M452.188,140.857c-.67-3.922-4.183-7.446-8.152-7.268a8.757,8.757,0,0,0-6.052,3.227,15.921,15.921,0,0,0-1.477,1.934,16.134,16.134,0,0,0-1.276-2.077,8.68,8.68,0,0,0-5.672-3.845c-3.934-.593-7.79,2.533-8.9,6.36s.166,8.015,2.373,11.314A22.421,22.421,0,0,0,435.677,160c4.491-.789,10.359-5.079,12.916-8.122S452.858,144.767,452.188,140.857Z" transform="translate(-184.542 -70.832)" fill="#ebebeb"/>
          <path id="Path_19393" data-name="Path 19393" d="M451.62,153.608H451.1l-1.477-.053-5.429-.243.095-.065c-.593,1.726-1.246,3.756-1.982,5.974l-.119.362-.107-.368c-.819-2.818-1.732-5.974-2.7-9.3-.3-1.032-.593-2.047-.878-3.032l.231.03-3.862,5.868-.036.053h-.065l-9.546-.552-2.705-.178-.712-.053a2,2,0,0,1-.243-.03h.961l2.705.107,9.552.457-.107.053,3.844-5.874.154-.237.077.267c.285.991.593,2.005.878,3.038.955,3.328,1.869,6.485,2.676,9.3h-.225l2.029-5.933v-.071h.071l5.423.326,1.471.107h.386A.511.511,0,0,1,451.62,153.608Z" transform="translate(-185.078 -76.433)" fill="#fafafa"/>
          <path id="Path_19394" data-name="Path 19394" d="M362.29,131.851a1.634,1.634,0,0,1,.231-.166l.694-.457a10.793,10.793,0,0,0,1.1-.771,17.466,17.466,0,0,0,1.436-1.145l.819-.724c.273-.267.558-.558.848-.854a12.853,12.853,0,0,0,.89-.967c.291-.35.623-.694.9-1.1a25.512,25.512,0,0,0,3.382-5.713,25.227,25.227,0,0,0,1.982-7.784,24.571,24.571,0,0,0,0-4.479,44.825,44.825,0,0,0-.813-4.7c-.676-3.18-1.572-6.585-1.3-10.2a24.718,24.718,0,0,1,3.619-10.4,31.237,31.237,0,0,1,6.947-8.579,17.17,17.17,0,0,1,4.521-2.717,19.8,19.8,0,0,1,4.906-1.187,59.507,59.507,0,0,1,9.315-.148,42.472,42.472,0,0,0,8.039-.344,16.161,16.161,0,0,0,6.206-2.231,12.2,12.2,0,0,0,3.649-3.429,8.989,8.989,0,0,0,1.341-2.86c.184-.7.219-1.086.243-1.08a6.259,6.259,0,0,1-.178,1.1,8.734,8.734,0,0,1-1.3,2.913,12.181,12.181,0,0,1-3.631,3.5,16.25,16.25,0,0,1-6.271,2.3,41.838,41.838,0,0,1-8.1.374,61.2,61.2,0,0,0-9.267.178,19.881,19.881,0,0,0-4.829,1.187,16.891,16.891,0,0,0-4.432,2.676,31.769,31.769,0,0,0-6.87,8.49,23.781,23.781,0,0,0-3.56,10.258c-.249,3.536.593,6.918,1.276,10.116a44.514,44.514,0,0,1,.8,4.746,24.154,24.154,0,0,1,0,4.539,25.44,25.44,0,0,1-2.088,7.855,25.9,25.9,0,0,1-3.453,5.737,11.032,11.032,0,0,1-.92,1.092c-.326.35-.593.676-.9.967l-.866.848-.837.718a16.949,16.949,0,0,1-1.459,1.127,10.148,10.148,0,0,1-1.127.748l-.712.427a1.435,1.435,0,0,1-.231.136Z" transform="translate(-160.968 -41.167)" fill="#e0e0e0"/>
          <path id="Path_19395" data-name="Path 19395" d="M335.11,103.016s.036-.095.119-.267.219-.445.38-.771.421-.73.7-1.187a14.484,14.484,0,0,1,1.092-1.56,21.8,21.8,0,0,1,3.643-3.732,22.047,22.047,0,0,1,5.969-3.459,22.911,22.911,0,0,1,3.88-1.086,29.172,29.172,0,0,1,4.349-.4c3.008-.089,6.224.16,9.582-.042a23.322,23.322,0,0,0,5.073-.854,22.123,22.123,0,0,0,4.918-2.13,24.918,24.918,0,0,0,8.122-7.713,28.245,28.245,0,0,0,4.153-10.454,34.15,34.15,0,0,0,.285-10.507c-.421-3.34-1.234-6.455-1.7-9.433a23.952,23.952,0,0,1-.119-8.359,17.87,17.87,0,0,1,2.6-6.384,18.267,18.267,0,0,1,3.441-3.916,19.038,19.038,0,0,1,2.705-1.881l.765-.386.267-.119-.249.148-.748.415a19.842,19.842,0,0,0-2.658,1.922,18.44,18.44,0,0,0-3.37,3.916,17.947,17.947,0,0,0-2.533,6.324,23.945,23.945,0,0,0,.16,8.27c.475,2.966,1.3,6.069,1.738,9.439a34.411,34.411,0,0,1-.273,10.608A28.406,28.406,0,0,1,383.214,80a25.155,25.155,0,0,1-8.235,7.82,22.5,22.5,0,0,1-5,2.154,23.316,23.316,0,0,1-5.138.86c-3.394.2-6.6-.065-9.6,0a29.3,29.3,0,0,0-4.307.38,21.845,21.845,0,0,0-13.438,8.1c-.451.546-.789,1.086-1.109,1.531a11.687,11.687,0,0,0-.724,1.187c-.184.326-.309.593-.409.748S335.11,103.016,335.11,103.016Z" transform="translate(-149.914 -28.38)" fill="#e0e0e0"/>
          <path id="Path_19396" data-name="Path 19396" d="M424.18,38.66a6.108,6.108,0,0,1,.914.528c.593.356,1.388.9,2.373,1.584A91.782,91.782,0,0,1,441.807,53.1c.825.884,1.483,1.608,1.922,2.124a6.232,6.232,0,0,1,.659.842,6.875,6.875,0,0,1-.736-.748c-.516-.522-1.187-1.187-2-2.053-1.7-1.721-4.1-4.04-6.894-6.443s-5.44-4.438-7.4-5.856l-2.326-1.673A6.583,6.583,0,0,1,424.18,38.66Z" transform="translate(-186.139 -32.561)" fill="#e0e0e0"/>
          <path id="Path_19397" data-name="Path 19397" d="M420.23,49.34a5.784,5.784,0,0,1,.676.593l1.78,1.709c1.5,1.442,3.6,3.4,6,5.476s4.645,3.862,6.295,5.138l1.946,1.507a4.946,4.946,0,0,1,.7.593,4.682,4.682,0,0,1-.771-.475c-.487-.326-1.187-.813-2.017-1.424-1.685-1.228-3.963-2.966-6.372-5.073s-4.491-4.076-5.933-5.559c-.73-.748-1.311-1.359-1.7-1.78a4.153,4.153,0,0,1-.605-.706Z" transform="translate(-184.533 -36.905)" fill="#e0e0e0"/>
          <path id="Path_19398" data-name="Path 19398" d="M421.55,62.45a10.519,10.519,0,0,1,1.525,1.121c.914.724,2.154,1.78,3.495,2.966s2.521,2.284,3.358,3.1a9.675,9.675,0,0,1,1.305,1.376,11.826,11.826,0,0,1-1.465-1.187l-3.417-3.014L422.926,63.8a10.677,10.677,0,0,1-1.377-1.347Z" transform="translate(-185.07 -42.237)" fill="#e0e0e0"/>
          <path id="Path_19399" data-name="Path 19399" d="M411.62,78.19a6.712,6.712,0,0,1,1.157.848l2.7,2.154,2.729,2.124a6.233,6.233,0,0,1,1.1.931,6.01,6.01,0,0,1-1.234-.742c-.736-.492-1.732-1.187-2.794-2.047s-2-1.637-2.652-2.237A5.668,5.668,0,0,1,411.62,78.19Z" transform="translate(-181.031 -48.638)" fill="#e0e0e0"/>
          <path id="Path_19400" data-name="Path 19400" d="M399.83,83c.036-.036.736.647,1.9,1.7s2.8,2.45,4.729,3.9,3.72,2.658,5.049,3.5a25.228,25.228,0,0,1,2.142,1.376,3.131,3.131,0,0,1-.629-.279c-.392-.2-.955-.5-1.638-.9a52.063,52.063,0,0,1-5.126-3.435,50.169,50.169,0,0,1-4.669-4.028c-.564-.552-1.009-1.015-1.3-1.341A2.456,2.456,0,0,1,399.83,83Z" transform="translate(-176.236 -50.594)" fill="#e0e0e0"/>
          <path id="Path_19401" data-name="Path 19401" d="M392.35,91.909c.053-.077,3.512,2.48,7.713,5.707s7.57,5.9,7.511,5.968-3.506-2.48-7.713-5.707S392.3,91.962,392.35,91.909Z" transform="translate(-173.193 -54.217)" fill="#e0e0e0"/>
          <path id="Path_19402" data-name="Path 19402" d="M383.3,100a3.807,3.807,0,0,1,.67.486l1.78,1.406c1.5,1.187,3.56,2.824,5.9,4.574s4.473,3.281,6.034,4.378l1.851,1.311a3.922,3.922,0,0,1,.653.51,4.153,4.153,0,0,1-.724-.4c-.463-.279-1.115-.694-1.91-1.222-1.6-1.05-3.773-2.557-6.1-4.307s-4.39-3.417-5.844-4.657c-.73-.593-1.311-1.127-1.709-1.489A3.844,3.844,0,0,1,383.3,100Z" transform="translate(-169.513 -57.509)" fill="#e0e0e0"/>
          <path id="Path_19403" data-name="Path 19403" d="M380.559,111.719c.053-.077,2.966,2.094,6.556,4.841s6.407,5.037,6.348,5.108-2.966-2.094-6.556-4.841S380.5,111.79,380.559,111.719Z" transform="translate(-168.398 -62.274)" fill="#e0e0e0"/>
          <path id="Path_19404" data-name="Path 19404" d="M378,123.91a64.82,64.82,0,0,1,7.452,5,29.661,29.661,0,0,1-3.821-2.373A29.168,29.168,0,0,1,378,123.91Z" transform="translate(-167.357 -67.233)" fill="#e0e0e0"/>
          <path id="Path_19405" data-name="Path 19405" d="M365.33,135.57a11.313,11.313,0,0,1,1.715.973c1.032.647,2.438,1.572,3.945,2.652s2.842,2.118,3.779,2.883a10.172,10.172,0,0,1,1.471,1.317,12.891,12.891,0,0,1-1.614-1.127c-.979-.724-2.326-1.721-3.833-2.8s-2.877-2.035-3.874-2.729A11.82,11.82,0,0,1,365.33,135.57Z" transform="translate(-162.204 -71.975)" fill="#e0e0e0"/>
          <path id="Path_19406" data-name="Path 19406" d="M354.31,135.78a3.655,3.655,0,0,1,.688.469c.433.32,1.044.8,1.78,1.4,1.5,1.187,3.524,2.907,5.69,4.877s4.052,3.833,5.387,5.209c.67.688,1.187,1.258,1.56,1.655a4.088,4.088,0,0,1,.528.641,3.906,3.906,0,0,1-.623-.552l-1.632-1.572c-1.376-1.335-3.287-3.162-5.446-5.132s-4.153-3.7-5.612-4.948l-1.721-1.477A4.065,4.065,0,0,1,354.31,135.78Z" transform="translate(-157.722 -72.061)" fill="#e0e0e0"/>
          <path id="Path_19407" data-name="Path 19407" d="M345.06,144a4.946,4.946,0,0,1,.748.522c.463.356,1.127.872,1.94,1.525,1.632,1.305,3.856,3.138,6.271,5.215s4.568,3.993,6.1,5.4c.771.706,1.382,1.287,1.78,1.691a4.515,4.515,0,0,1,.629.659,5.291,5.291,0,0,1-.718-.564l-1.869-1.608c-1.626-1.406-3.785-3.269-6.164-5.34l-6.206-5.28-1.851-1.632A4.845,4.845,0,0,1,345.06,144Z" transform="translate(-153.96 -75.404)" fill="#e0e0e0"/>
          <path id="Path_19408" data-name="Path 19408" d="M321.155,41.835a8.983,8.983,0,0,1,3.239,6.235,15.835,15.835,0,0,1-1.109,7.078c-1.626,4.373-5.34,8.27-8.959,11.178-2.966-4.242-2.373-10.228-1.922-13.242.753-4.746,5.013-12.928,8.769-11.272" transform="translate(-140.527 -33.754)" fill="#f5f5f5"/>
          <path id="Path_19409" data-name="Path 19409" d="M320.17,92.5a7.659,7.659,0,0,1,4.153-6.467,10.163,10.163,0,0,1,7.855-.439,4.339,4.339,0,0,1,2.842,2.231,3.287,3.287,0,0,1-.753,3.233,6.674,6.674,0,0,1-2.966,1.78c-3.791,1.24-7.713,1.744-11.124-.291" transform="translate(-143.837 -51.412)" fill="#f5f5f5"/>
          <path id="Path_19410" data-name="Path 19410" d="M308.25,104.771a15.094,15.094,0,0,1,1.246-2.824,14.378,14.378,0,0,1,1.9-2.777,31.536,31.536,0,0,1,2.818-2.966,15.342,15.342,0,0,1,6.526-3.56A11.4,11.4,0,0,1,323,92.354a2.4,2.4,0,0,1,.831.071c0,.095-1.187.065-2.966.593a16.494,16.494,0,0,0-6.277,3.619,36.4,36.4,0,0,0-2.806,2.919,16.061,16.061,0,0,0-1.946,2.646A22.835,22.835,0,0,1,308.25,104.771Z" transform="translate(-138.989 -54.395)" fill="#e0e0e0"/>
          <path id="Path_19411" data-name="Path 19411" d="M316.391,53a8.945,8.945,0,0,1-.226,1.543c-.178.991-.457,2.415-.813,4.153-.718,3.512-1.78,8.354-3.038,13.646s-2.587,10.086-3.6,13.545c-.5,1.721-.931,3.109-1.246,4.058a8.357,8.357,0,0,1-.534,1.465,8.857,8.857,0,0,1,.338-1.519c.279-1.062.647-2.444,1.086-4.106.92-3.465,2.16-8.253,3.441-13.569l3.186-13.646c.4-1.673.724-3.061.973-4.153A9.175,9.175,0,0,1,316.391,53Z" transform="translate(-138.457 -38.393)" fill="#e0e0e0"/>
          <path id="Path_19412" data-name="Path 19412" d="M300.651,87.864a17.923,17.923,0,0,0-8.336-14.091c-1.228-.759-2.878-1.347-4.046-.492s-1.115,2.61-.736,4a15.289,15.289,0,0,0,12.987,10.946" transform="translate(-130.465 -46.47)" fill="#f5f5f5"/>
          <path id="Path_19413" data-name="Path 19413" d="M296.57,81.49a5.175,5.175,0,0,1,.682.451c.415.314,1.009.807,1.715,1.43a20.337,20.337,0,0,1,4.562,5.791,12.673,12.673,0,0,1,1.187,3.916,12.3,12.3,0,0,1-.059,3.34,12.044,12.044,0,0,1-.546,2.177,2.728,2.728,0,0,1-.32.753c-.1,0,.285-1.133.5-2.966a13.235,13.235,0,0,0-.053-3.227,12.887,12.887,0,0,0-1.187-3.75A22.883,22.883,0,0,0,298.7,83.65,25.559,25.559,0,0,1,296.57,81.49Z" transform="translate(-134.239 -49.98)" fill="#e0e0e0"/>
        </g>
        <g id="freepik--Device--inject-58" transform="translate(73.549 73.44)">
          <rect id="Rectangle_8986" data-name="Rectangle 8986" width="151.318" height="217.156" rx="11.55" fill="#263238"/>
          <rect id="Rectangle_8987" data-name="Rectangle 8987" width="141.772" height="181.351" transform="translate(4.699 15.491)" fill="#fff"/>
          <path id="Path_19414" data-name="Path 19414" d="M237.577,448.018a5.8,5.8,0,1,1-1.7-4.107A5.808,5.808,0,0,1,237.577,448.018Z" transform="translate(-156.112 -241.749)" fill="#455a64"/>
          <rect id="Rectangle_8988" data-name="Rectangle 8988" width="45.576" height="2.397" rx="1.198" transform="translate(52.874 6.253)" fill="#455a64"/>
          <rect id="Rectangle_8989" data-name="Rectangle 8989" width="112.944" height="19.068" transform="translate(20.581 29.659)" fill="#52b1e4"/>
          <path id="Path_19415" data-name="Path 19415" d="M201.09,165.38h.854v5.992h-.854Z" transform="translate(-145.997 -129.16)" fill="#fff"/>
          <path id="Path_19416" data-name="Path 19416" d="M210.716,165.38v5.992h-.7l-3.6-4.438V171.4h-.854V165.41h.7l3.6,4.467V165.41Z" transform="translate(-147.815 -129.16)" fill="#fff"/>
          <path id="Path_19417" data-name="Path 19417" d="M216.36,170.641l.314-.67a3.085,3.085,0,0,0,1.982.694c1.032,0,1.477-.4,1.477-.926,0-1.465-3.631-.54-3.631-2.765,0-.926.724-1.715,2.3-1.715a3.512,3.512,0,0,1,1.928.534l-.285.682a3.1,3.1,0,0,0-1.643-.487c-1.02,0-1.454.427-1.454.949,0,1.465,3.631.546,3.631,2.747,0,.92-.736,1.709-2.32,1.709A3.559,3.559,0,0,1,216.36,170.641Z" transform="translate(-152.208 -129.11)" fill="#fff"/>
          <path id="Path_19418" data-name="Path 19418" d="M226.16,168.785V165.38h.854v3.37c0,1.329.593,1.928,1.691,1.928s1.691-.593,1.691-1.928v-3.37h.837v3.405a2.539,2.539,0,1,1-5.073,0Z" transform="translate(-156.193 -129.16)" fill="#fff"/>
          <path id="Path_19419" data-name="Path 19419" d="M241.671,171.36l-1.293-1.839H238.52v1.821h-.86V165.35h2.373c1.554,0,2.5.783,2.5,2.088a1.893,1.893,0,0,1-1.317,1.893l1.418,2.011Zm0-3.9c0-.854-.593-1.347-1.673-1.347h-1.454v2.7H240c1.074,0,1.649-.5,1.649-1.353Z" transform="translate(-160.871 -129.147)" fill="#fff"/>
          <path id="Path_19420" data-name="Path 19420" d="M251.359,169.921h-3.186l-.664,1.5h-.878l2.711-5.992h.848l2.723,5.992h-.9Zm-.3-.682-1.293-2.966-1.293,2.966Z" transform="translate(-164.519 -129.18)" fill="#fff"/>
          <path id="Path_19421" data-name="Path 19421" d="M263.88,165.38v5.992h-.7l-3.6-4.438V171.4h-.854V165.41h.7l3.6,4.467V165.41Z" transform="translate(-169.44 -129.16)" fill="#fff"/>
          <path id="Path_19422" data-name="Path 19422" d="M269.62,168.325a3.032,3.032,0,0,1,3.18-3.067,2.966,2.966,0,0,1,2.278.931l-.558.54a2.219,2.219,0,0,0-1.685-.706,2.3,2.3,0,1,0,0,4.6,2.231,2.231,0,0,0,1.685-.718l.558.54a2.966,2.966,0,0,1-2.266.943,3.032,3.032,0,0,1-3.192-3.067Z" transform="translate(-173.869 -129.108)" fill="#fff"/>
          <path id="Path_19423" data-name="Path 19423" d="M285.235,170.625v.748H280.88V165.38H285.1v.742h-3.37v1.845h3v.748h-3v1.934Z" transform="translate(-178.449 -129.16)" fill="#fff"/>
          <path id="Path_19424" data-name="Path 19424" d="M258.582,225.024v-1.287c0-.866,0-2.177-.03-3.969l.047.047c-14.043.065-60.569.107-115.691.107h0l.154-.154v5.257l-.154-.154,81.963.065,24.687.047h.053l-24.651.047-82.076.065h-.154V219.53h.16c55.134,0,101.66.047,115.691.113h0v5.381Z" transform="translate(-122.262 -151.183)" fill="#263238"/>
          <path id="Path_19425" data-name="Path 19425" d="M162.781,207.8c0,.089-5.084.154-11.356.154s-11.356-.065-11.356-.154,5.084-.154,11.356-.154S162.781,207.721,162.781,207.8Z" transform="translate(-121.18 -146.351)" fill="#263238"/>
          <path id="Path_19426" data-name="Path 19426" d="M255.688,360.46V355.2l.042.042c-14.043.065-60.563.113-115.691.113h0l.154-.154v5.257l-.154-.154,81.957.059,24.693.047h.053l-24.651.047-82.076.065h-.154V354.96h.16c55.134,0,101.654.047,115.691.113h.047v.042c0,1.78,0,3.115-.03,3.993v.955A1.948,1.948,0,0,1,255.688,360.46Z" transform="translate(-121.094 -206.264)" fill="#263238"/>
          <path id="Path_19427" data-name="Path 19427" d="M164.5,346.354c0,.089-5.085.154-11.356.154s-11.356-.065-11.356-.154,5.084-.154,11.356-.154S164.5,346.271,164.5,346.354Z" transform="translate(-121.879 -202.701)" fill="#263238"/>
          <path id="Path_19428" data-name="Path 19428" d="M255.688,258.874v-5.251l.042.042c-14.043.065-60.563.113-115.691.113h0l.154-.154v5.251l-.154-.154,81.957.065,24.693.047h.053l-24.651.047-82.076.059h-.154V253.38h.16c55.134,0,101.654.047,115.691.113h.047v.042c0,1.78,0,3.115-.03,3.987v.961A1.853,1.853,0,0,1,255.688,258.874Z" transform="translate(-121.094 -164.95)" fill="#263238"/>
          <path id="Path_19429" data-name="Path 19429" d="M162.781,244.774c0,.089-5.084.154-11.356.154s-11.356-.065-11.356-.154,5.084-.154,11.356-.154S162.781,244.691,162.781,244.774Z" transform="translate(-121.18 -161.387)" fill="#263238"/>
          <path id="Path_19430" data-name="Path 19430" d="M189.2,292.734v-1.365c0-.9,0-2.2-.036-3.892l.065.065c-8.549.053-27.38.089-49.207.089h0c.071-.065-.154.154.154-.154h0v5.239l-.154-.154,34.921.065,10.448.047h.077l-10.418.047-35,.065h-.154v-5.393h0l.154-.154h0c21.827,0,40.658.036,49.207.089h.065v.065c0,1.709-.03,3.026-.042,3.928v1A1.1,1.1,0,0,1,189.2,292.734Z" transform="translate(-121.106 -178.721)" fill="#263238"/>
          <path id="Path_19431" data-name="Path 19431" d="M162.781,278.634c0,.083-5.084.154-11.356.154s-11.356-.071-11.356-.154,5.084-.154,11.356-.154S162.781,278.545,162.781,278.634Z" transform="translate(-121.18 -175.159)" fill="#263238"/>
          <path id="Path_19432" data-name="Path 19432" d="M148.176,324.985a2.74,2.74,0,0,1,0-.392c0-.285,0-.641-.03-1.068,0-.955-.042-2.243-.065-3.791l.119.119-8.187.036c-.036,0,.291-.3.154-.154h0v5.245l-.142-.142c2.373,0,4.4.042,5.856.071l1.7.042a5.739,5.739,0,0,1,.629.03,3.2,3.2,0,0,1-.593.036l-1.673.036c-1.442.03-3.506.059-5.933.071h-.142v-5.387h0l.154-.154,8.187.03h.125v.125c0,1.632-.042,2.966-.065,3.868,0,.415,0,.759-.03,1.038A1.324,1.324,0,0,1,148.176,324.985Z" transform="translate(-121.098 -191.874)" fill="#263238"/>
          <path id="Path_19433" data-name="Path 19433" d="M166.381,324.983a2.74,2.74,0,0,1,0-.392q0-.427-.036-1.068c0-.955-.036-2.243-.065-3.791l.125.119-8.187.036c-.036,0,.291-.3.154-.154h0v5.245l-.142-.142c2.373,0,4.4.042,5.85.071l1.7.042a5.8,5.8,0,0,1,.635.03,3.282,3.282,0,0,1-.593.036l-1.673.036c-1.442.03-3.506.059-5.933.071h-.142v-5.387h0c-.142.136.184-.19.154-.154l8.187.03h.125v.125c0,1.632-.042,2.966-.065,3.868v1.038A1.321,1.321,0,0,1,166.381,324.983Z" transform="translate(-128.488 -191.873)" fill="#263238"/>
          <path id="Path_19434" data-name="Path 19434" d="M184.624,324.985a2.2,2.2,0,0,1-.03-.392c0-.285,0-.641-.03-1.068,0-.955-.036-2.243-.065-3.791l.125.119-8.193.036.154-.154h0v5.245l-.142-.142c2.373,0,4.408.042,5.856.071l1.7.042a5.944,5.944,0,0,1,.635.03,3.322,3.322,0,0,1-.593.036l-1.667.036c-1.442.03-3.512.059-5.933.071H176.3v-5.387h0l.154-.154,8.193.03h.125v.125c0,1.632-.042,2.966-.059,3.868a8.863,8.863,0,0,1-.036,1.038A1.643,1.643,0,0,1,184.624,324.985Z" transform="translate(-135.915 -191.874)" fill="#263238"/>
          <path id="Path_19435" data-name="Path 19435" d="M202.876,324.985v-1.46c0-.955-.042-2.243-.065-3.791l.119.119-8.187.036c-.036,0,.291-.3.154-.154h0v5.245l-.142-.142c2.373,0,4.4.042,5.856.071l1.7.042a5.6,5.6,0,0,1,.629.03,3.2,3.2,0,0,1-.593.036l-1.673.036c-1.436.03-3.506.059-5.933.071H194.6v-5.387h0l.154-.154,8.187.03h.125v.125c0,1.632-.042,2.966-.065,3.868,0,.415,0,.759-.03,1.038A1.324,1.324,0,0,1,202.876,324.985Z" transform="translate(-143.358 -191.874)" fill="#263238"/>
          <path id="Path_19436" data-name="Path 19436" d="M221.086,324.985a2.736,2.736,0,0,1,0-.392c0-.285,0-.641-.036-1.068,0-.955-.036-2.243-.059-3.791l.119.119-8.187.036c-.036,0,.291-.3.154-.154h0v5.245l-.142-.142c2.373,0,4.4.042,5.85.071l1.7.042a5.811,5.811,0,0,1,.635.03,3.279,3.279,0,0,1-.593.036l-1.673.036c-1.442.03-3.506.059-5.933.071h-.142v-5.387h0l.154-.154,8.187.03h.095v.125c0,1.632-.042,2.966-.065,3.868v1.038a1.322,1.322,0,0,1-.065.344Z" transform="translate(-150.752 -191.874)" fill="#263238"/>
          <path id="Path_19437" data-name="Path 19437" d="M239.306,324.985a2.205,2.205,0,0,1,0-.392c0-.285,0-.641-.03-1.068,0-.955-.036-2.243-.065-3.791l.125.119-8.193.036.154-.154h0v5.245l-.142-.142c2.373,0,4.408.042,5.856.071l1.7.042a5.81,5.81,0,0,1,.635.03,3.319,3.319,0,0,1-.593.036l-1.667.036c-1.442.03-3.512.059-5.933.071H231v-5.387h0l.154-.154,8.193.03h.125v.125c0,1.632-.042,2.966-.059,3.868a8.863,8.863,0,0,1-.036,1.038,1.645,1.645,0,0,1-.071.344Z" transform="translate(-158.162 -191.874)" fill="#263238"/>
          <path id="Path_19438" data-name="Path 19438" d="M257.534,324.985a2.2,2.2,0,0,1-.03-.392c0-.285,0-.641-.03-1.068,0-.955-.042-2.243-.065-3.791l.125.119-8.193.036c-.036,0,.291-.3.154-.154h0v5.245l-.142-.142c2.373,0,4.4.042,5.856.071l1.7.042a5.943,5.943,0,0,1,.635.03,3.406,3.406,0,0,1-.593.036l-1.667.036c-1.442.03-3.512.059-5.933.071h-.142v-5.387h0l.154-.154,8.193.03h.119v.125c0,1.632-.042,2.966-.065,3.868,0,.415,0,.759-.03,1.038A1.649,1.649,0,0,1,257.534,324.985Z" transform="translate(-165.568 -191.874)" fill="#263238"/>
          <path id="Path_19439" data-name="Path 19439" d="M275.741,324.983a2.749,2.749,0,0,1,0-.392c0-.285,0-.641-.03-1.068,0-.955-.042-2.243-.065-3.791l.119.119-8.187.036c-.036,0,.291-.3.154-.154h0v5.245l-.142-.142c2.373,0,4.4.042,5.856.071l1.7.042a5.757,5.757,0,0,1,.629.03,3.282,3.282,0,0,1-.593.036l-1.673.036c-1.442.03-3.506.059-5.933.071h-.142v-5.387h0c-.142.136.184-.19.154-.154l8.187.03h.125v.125c0,1.632-.042,2.966-.065,3.868,0,.415,0,.759-.03,1.038A1.322,1.322,0,0,1,275.741,324.983Z" transform="translate(-172.966 -191.873)" fill="#263238"/>
          <path id="Path_19440" data-name="Path 19440" d="M293.961,324.983a3.232,3.232,0,0,1-.03-.392c0-.285,0-.641-.03-1.068,0-.955-.036-2.243-.065-3.791l.125.119-8.187.036c-.036,0,.291-.3.148-.154h0v5.245l-.142-.142c2.373,0,4.408.042,5.856.071l1.7.042a5.8,5.8,0,0,1,.635.03,3.282,3.282,0,0,1-.593.036l-1.673.036c-1.442.03-3.512.059-5.933.071h-.136v-5.387h0c-.136.136.19-.19.16-.154l8.187.03h.125v.125c0,1.632-.047,2.966-.065,3.868a8.863,8.863,0,0,1-.036,1.038,1.64,1.64,0,0,1-.048.344Z" transform="translate(-180.37 -191.873)" fill="#263238"/>
          <path id="Path_19441" data-name="Path 19441" d="M312.214,324.985a2.206,2.206,0,0,1-.03-.392c0-.285,0-.641-.03-1.068,0-.955-.036-2.243-.065-3.791l.125.119-8.193.036c-.036,0,.291-.3.154-.154h0v5.245l-.142-.142c2.373,0,4.4.042,5.856.071l1.7.042a5.943,5.943,0,0,1,.635.03,3.321,3.321,0,0,1-.593.036l-1.667.036c-1.442.03-3.512.059-5.933.071h-.142v-5.387h0l.154-.154,8.193.03h.119v.125c0,1.632-.042,2.966-.065,3.868,0,.415,0,.759-.03,1.038A1.645,1.645,0,0,1,312.214,324.985Z" transform="translate(-187.807 -191.874)" fill="#263238"/>
          <path id="Path_19442" data-name="Path 19442" d="M330.446,324.985a2.722,2.722,0,0,1,0-.392c0-.285,0-.641-.03-1.068,0-.955-.042-2.243-.065-3.791l.119.119-8.187.036c-.036,0,.291-.3.154-.154h0v5.245l-.142-.142c2.373,0,4.4.042,5.856.071l1.7.042a5.747,5.747,0,0,1,.629.03,3.2,3.2,0,0,1-.593.036l-1.673.036c-1.442.03-3.506.059-5.933.071h-.142v-5.387h0l.154-.154,8.187.03h.125v.125c0,1.632-.042,2.966-.065,3.868,0,.415,0,.759-.03,1.038a1.32,1.32,0,0,1-.065.344Z" transform="translate(-195.23 -191.874)" fill="#263238"/>
          <path id="Path_19443" data-name="Path 19443" d="M164.5,310.824c0,.089-5.085.154-11.356.154s-11.356-.065-11.356-.154,5.084-.154,11.356-.154S164.5,310.741,164.5,310.824Z" transform="translate(-121.879 -188.251)" fill="#263238"/>
          <path id="Path_19444" data-name="Path 19444" d="M299.92,292.734v-1.365c0-.9,0-2.2-.036-3.892l.065.065c-8.549.053-27.374.089-49.2.089h0l.154-.154h0v5.239l-.154-.154,34.921.065,10.448.047h.077l-10.412.047-35,.065h-.148v-5.393h0l.16-.154h0c21.827,0,40.652.036,49.2.089h.065v.065c0,1.709-.03,3.026-.036,3.928v1A.883.883,0,0,1,299.92,292.734Z" transform="translate(-166.146 -178.721)" fill="#263238"/>
          <path id="Path_19445" data-name="Path 19445" d="M275.211,278.634c0,.083-5.084.154-11.356.154s-11.356-.071-11.356-.154,5.084-.154,11.356-.154S275.211,278.545,275.211,278.634Z" transform="translate(-166.906 -175.159)" fill="#263238"/>
          <path id="Path_19446" data-name="Path 19446" d="M237.409,400.028h-43.9A7.517,7.517,0,0,1,186,392.511h0A7.517,7.517,0,0,1,193.5,385h43.9a7.517,7.517,0,0,1,7.517,7.517h0A7.517,7.517,0,0,1,237.409,400.028Z" transform="translate(-139.86 -218.481)" fill="#52b1e4"/>
          <rect id="Rectangle_8990" data-name="Rectangle 8990" width="1.483" height="6.645" transform="translate(38.018 35.841)" fill="#fff"/>
          <rect id="Rectangle_8991" data-name="Rectangle 8991" width="1.483" height="6.645" transform="translate(35.437 39.905) rotate(-90)" fill="#fff"/>
          <path id="Path_19447" data-name="Path 19447" d="M175.217,166.5v-.546a1.838,1.838,0,0,0-.036-.231,3.427,3.427,0,0,0-.113-.593,5.559,5.559,0,0,0-4.331-4.052,5.642,5.642,0,0,0-3.6.558,5.371,5.371,0,0,0-.67.433,5.853,5.853,0,0,0-.593.528,6.914,6.914,0,0,0-.54.635,5.388,5.388,0,0,0-.783,1.513,5.5,5.5,0,0,0,0,3.459,5.233,5.233,0,0,0,.783,1.513,6.213,6.213,0,0,0,.54.635,5.237,5.237,0,0,0,.593.528,5.368,5.368,0,0,0,.67.433,4.791,4.791,0,0,0,.718.314,5.494,5.494,0,0,0,6.6-2.338,5.411,5.411,0,0,0,.593-1.465,3.56,3.56,0,0,0,.113-.593,1.838,1.838,0,0,0,.036-.231v0a.7.7,0,0,1-.03.237,4.317,4.317,0,0,1-.107.593,5.339,5.339,0,0,1-.593,1.489,5.553,5.553,0,0,1-3.75,2.64,5.672,5.672,0,0,1-2.966-.231,7.172,7.172,0,0,1-.73-.32,7.082,7.082,0,0,1-.688-.439,7.822,7.822,0,0,1-.635-.54,6.292,6.292,0,0,1-.546-.647,5.226,5.226,0,0,1-.8-1.543,5.524,5.524,0,0,1,0-3.56,5.225,5.225,0,0,1,.8-1.543,6.412,6.412,0,0,1,.546-.647,6,6,0,0,1,.635-.54,5.24,5.24,0,0,1,1.418-.759,5.566,5.566,0,0,1,6.692,2.409,5.34,5.34,0,0,1,.593,1.489,4.318,4.318,0,0,1,.107.593.592.592,0,0,0,.03.231v.463Z" transform="translate(-130.934 -127.319)" fill="#fff"/>
          <path id="Path_19448" data-name="Path 19448" d="M223.423,397.447h-2.017l-.386.931H220l1.934-4.349h1l1.94,4.349h-1.056Zm-.314-.765-.688-1.661-.688,1.661Z" transform="translate(-153.688 -222.154)" fill="#fff"/>
          <path id="Path_19449" data-name="Path 19449" d="M228.4,396.125a2.373,2.373,0,0,1,4.153-1.477l-.647.593a1.394,1.394,0,1,0,0,1.756l.647.593a2.373,2.373,0,0,1-4.153-1.477Z" transform="translate(-157.104 -222.078)" fill="#fff"/>
          <path id="Path_19450" data-name="Path 19450" d="M235.91,396.15a2.237,2.237,0,0,1,2.373-2.243,2.266,2.266,0,0,1,1.78.765l-.647.593a1.394,1.394,0,1,0,0,1.756l.647.593a2.373,2.373,0,0,1-4.153-1.477Z" transform="translate(-160.159 -222.102)" fill="#fff"/>
          <path id="Path_19451" data-name="Path 19451" d="M247.394,397.56v.807H244V394h3.287v.807H245v.973h2.017v.783H245v1Z" transform="translate(-163.449 -222.142)" fill="#fff"/>
          <path id="Path_19452" data-name="Path 19452" d="M254.837,395.6c0,.967-.724,1.572-1.887,1.572h-.878v1.187h-1V394h1.881C254.114,394,254.837,394.623,254.837,395.6Zm-1.02,0c0-.481-.309-.759-.926-.759h-.819v1.537h.819C253.508,396.373,253.817,396.071,253.817,395.6Z" transform="translate(-166.325 -222.142)" fill="#fff"/>
          <path id="Path_19453" data-name="Path 19453" d="M258.988,394.836H257.6V394h3.8v.819h-1.388v3.53H259Z" transform="translate(-168.98 -222.142)" fill="#fff"/>
          <path id="Path_19454" data-name="Path 19454" d="M203.23,396.339l.748-.748,1.442,1.281,2.83-2.723.694.748-3.631,3.417Z" transform="translate(-146.868 -222.203)" fill="#fff"/>
        </g>
        <g id="freepik--Floor--inject-58" transform="translate(26.359 290.062)">
          <path id="Path_19455" data-name="Path 19455" d="M287.732,469.6c0,.083-57.994.154-129.515.154S28.69,469.687,28.69,469.6s57.982-.154,129.527-.154S287.732,469.515,287.732,469.6Z" transform="translate(-28.69 -469.45)" fill="#263238"/>
        </g>
        <g id="freepik--Character--inject-58" transform="translate(219.638 95.951)">
          <path id="Path_19456" data-name="Path 19456" d="M416.48,444.243l-.593,9.9s9.855,3.945,9.92,5.785l-19.246-.5L406.88,444Z" transform="translate(-375.653 -264.988)" fill="#52b1e4"/>
          <g id="Group_29186" data-name="Group 29186" transform="translate(33.721 188.166)" opacity="0.6">
            <path id="Path_19457" data-name="Path 19457" d="M411.877,459.43a.789.789,0,0,0-.564.884.753.753,0,0,0,.866.593.825.825,0,0,0,.593-.937.783.783,0,0,0-.967-.492" transform="translate(-411.303 -459.43)" fill="#fff"/>
          </g>
          <g id="Group_29187" data-name="Group 29187" transform="translate(30.907 192.883)" opacity="0.6">
            <path id="Path_19458" data-name="Path 19458" d="M406.56,468.934l.095-1.554,18.392,1.05s.848.4.736,1Z" transform="translate(-406.56 -467.38)" fill="#fff"/>
          </g>
          <path id="Path_19459" data-name="Path 19459" d="M421.572,460.881c0,.095-.475.125-.949.415s-.724.676-.807.641.065-.593.641-.92S421.6,460.8,421.572,460.881Z" transform="translate(-381.035 -271.82)" fill="#263238"/>
          <path id="Path_19460" data-name="Path 19460" d="M425.253,462.4c0,.095-.392.243-.718.635s-.433.807-.528.8-.136-.54.279-1.02S425.253,462.313,425.253,462.4Z" transform="translate(-382.723 -272.456)" fill="#263238"/>
          <path id="Path_19461" data-name="Path 19461" d="M427.927,465.453c-.089,0-.208-.451.047-.961s.7-.7.736-.623-.237.35-.439.765S428.01,465.447,427.927,465.453Z" transform="translate(-384.299 -273.063)" fill="#263238"/>
          <path id="Path_19462" data-name="Path 19462" d="M421.227,456.865c-.042.089-.469-.053-1-.03s-.949.178-1,.095.362-.4.991-.421S421.274,456.8,421.227,456.865Z" transform="translate(-380.803 -270.076)" fill="#263238"/>
          <g id="Group_29188" data-name="Group 29188" transform="translate(31.151 180.613)" opacity="0.3">
            <path id="Path_19463" data-name="Path 19463" d="M416.528,447.3l-.107,1.768-9.451-.326.036-2.041Z" transform="translate(-406.97 -446.7)"/>
          </g>
          <path id="Path_19464" data-name="Path 19464" d="M420.757,452.638a1.744,1.744,0,0,1-.961-.03,4,4,0,0,1-1-.332,3.87,3.87,0,0,1-.546-.309,1.084,1.084,0,0,1-.285-.231.415.415,0,0,1-.036-.5.534.534,0,0,1,.421-.2,1.186,1.186,0,0,1,.356.059,3.33,3.33,0,0,1,.593.219,3.5,3.5,0,0,1,.878.593c.433.427.593.777.546.795s-.255-.267-.7-.593a3.643,3.643,0,0,0-.848-.51,3.464,3.464,0,0,0-.546-.184c-.2-.059-.374-.065-.433,0s0,.047,0,.113a1.182,1.182,0,0,0,.214.166,4.536,4.536,0,0,0,.5.309,5.562,5.562,0,0,0,.926.38A7.106,7.106,0,0,1,420.757,452.638Z" transform="translate(-380.25 -267.848)" fill="#263238"/>
          <path id="Path_19465" data-name="Path 19465" d="M422.37,451.91a1.631,1.631,0,0,1-.231-.937,3.21,3.21,0,0,1,.16-1.05,2.968,2.968,0,0,1,.261-.593.783.783,0,0,1,.629-.469.433.433,0,0,1,.392.279,1.25,1.25,0,0,1,.089.356,2.135,2.135,0,0,1,0,.647,2.224,2.224,0,0,1-.439.985c-.386.486-.783.593-.789.558a3.79,3.79,0,0,0,.593-.694,2.225,2.225,0,0,0,.332-.9,1.958,1.958,0,0,0,0-.558c0-.2-.095-.368-.172-.35a.679.679,0,0,0-.35.309,3.365,3.365,0,0,0-.249.51,3.56,3.56,0,0,0-.214.961C422.334,451.524,422.423,451.874,422.37,451.91Z" transform="translate(-381.987 -266.965)" fill="#263238"/>
          <path id="Path_19466" data-name="Path 19466" d="M419.519,342.8l-15.289,4.912c.184.136,2.836,17.318,2.836,17.318l-2.207,45.612,12.133.148,5.429-47.843Z" transform="translate(-374.705 -223.829)" fill="#263238"/>
          <path id="Path_19467" data-name="Path 19467" d="M387.407,444.35l-.308,9.908s9.967,3.643,10.086,5.482l-19.24.089-.154-15.461Z" transform="translate(-363.952 -265.131)" fill="#52b1e4"/>
          <g id="Group_29189" data-name="Group 29189" transform="translate(16.661 188.308)" opacity="0.6">
            <path id="Path_19468" data-name="Path 19468" d="M383.1,459.687a.789.789,0,0,0-.54.9.76.76,0,0,0,.89.546.831.831,0,0,0,.564-.955.783.783,0,0,0-.985-.463" transform="translate(-382.548 -459.669)" fill="#fff"/>
          </g>
          <g id="Group_29190" data-name="Group 29190" transform="translate(14.022 193.144)" opacity="0.6">
            <path id="Path_19469" data-name="Path 19469" d="M378.1,469.374l.047-1.554,18.428.492s.854.368.765.973Z" transform="translate(-378.1 -467.82)" fill="#fff"/>
          </g>
          <path id="Path_19470" data-name="Path 19470" d="M392.8,460.835c0,.089-.475.136-.932.439s-.706.7-.795.665.053-.593.593-.937S392.841,460.746,392.8,460.835Z" transform="translate(-369.344 -271.803)" fill="#263238"/>
          <path id="Path_19471" data-name="Path 19471" d="M396.577,462.255c0,.089-.386.249-.7.647s-.409.825-.5.819-.154-.534.249-1.02S396.571,462.166,396.577,462.255Z" transform="translate(-371.074 -272.398)" fill="#263238"/>
          <path id="Path_19472" data-name="Path 19472" d="M399.319,465.227c-.083,0-.22-.451,0-.967s.682-.718.718-.641-.226.35-.415.777S399.414,465.215,399.319,465.227Z" transform="translate(-372.659 -272.961)" fill="#263238"/>
          <path id="Path_19473" data-name="Path 19473" d="M392.366,456.844c-.042.083-.475-.042-1,0s-.943.208-1,.13.35-.421.973-.457S392.408,456.767,392.366,456.844Z" transform="translate(-369.065 -270.078)" fill="#263238"/>
          <g id="Group_29191" data-name="Group 29191" transform="translate(13.88 180.869)" opacity="0.3">
            <path id="Path_19474" data-name="Path 19474" d="M387.394,447.444l-.053,1.762-9.457-.036-.024-2.041Z" transform="translate(-377.86 -447.13)"/>
          </g>
          <path id="Path_19475" data-name="Path 19475" d="M391.771,452.637a1.738,1.738,0,0,1-.961,0,4.252,4.252,0,0,1-1.015-.3,5.532,5.532,0,0,1-.552-.291,1.188,1.188,0,0,1-.291-.226.4.4,0,0,1-.047-.5.528.528,0,0,1,.409-.219,1.306,1.306,0,0,1,.362.047,3.554,3.554,0,0,1,.593.208,3.381,3.381,0,0,1,.9.593,2.231,2.231,0,0,1,.593.777c0,.018-.261-.261-.718-.593a4,4,0,0,0-.86-.481,3.822,3.822,0,0,0-.558-.166c-.2-.053-.374-.053-.427.036s0,.053,0,.113a.83.83,0,0,0,.214.16,4.021,4.021,0,0,0,.51.291,4.849,4.849,0,0,0,.931.35A8.3,8.3,0,0,1,391.771,452.637Z" transform="translate(-368.446 -267.876)" fill="#263238"/>
          <path id="Path_19476" data-name="Path 19476" d="M393.392,451.817a1.543,1.543,0,0,1-.255-.926,3.151,3.151,0,0,1,.125-1.056,3.081,3.081,0,0,1,.243-.593.813.813,0,0,1,.593-.492.457.457,0,0,1,.4.267,1.3,1.3,0,0,1,.1.356,2.155,2.155,0,0,1,0,.647,2.189,2.189,0,0,1-.409,1,1.466,1.466,0,0,1-.771.593,6.177,6.177,0,0,0,.593-.706,2.129,2.129,0,0,0,.3-.908,1.777,1.777,0,0,0,0-.558c-.03-.2-.107-.368-.184-.35a.675.675,0,0,0-.338.32,3.344,3.344,0,0,0-.231.522,3.278,3.278,0,0,0-.184.961C393.345,451.455,393.446,451.805,393.392,451.817Z" transform="translate(-370.192 -266.92)" fill="#263238"/>
          <path id="Path_19477" data-name="Path 19477" d="M373.29,346.9c0,3.453,1.365,67.481,1.365,67.481l11.516-1.026,2.373-39.347,1.24-3.429,1.442-21.2Z" transform="translate(-362.121 -225.497)" fill="#263238"/>
          <path id="Path_19478" data-name="Path 19478" d="M413.192,207c.154.208,9.149,14.482,9.149,14.482L432.456,210.9l5.173,7.47s-10.816,15.265-12.406,15.817-6.7-.314-6.7-.314l-7.119-9.427Z" transform="translate(-377.621 -168.598)" fill="#ebebeb"/>
          <path id="Path_19479" data-name="Path 19479" d="M429.853,234.653a4.089,4.089,0,0,1-.19-1.643,4.891,4.891,0,0,1,.113-1.649,4.151,4.151,0,0,1,.2,1.643A5.006,5.006,0,0,1,429.853,234.653Z" transform="translate(-385.038 -178.505)" fill="#263238"/>
          <path id="Path_19480" data-name="Path 19480" d="M368.8,189l-1.554,3.839s-7.98,6.734-8.7,7.772,5.7,34.607,5.7,34.607-.415,49.32,0,49.32,5.933,1.78,17.205.931,13.367-1.97,13.367-1.97l-3.518-43.619L385.9,210.554l-9.249-11.913Z" transform="translate(-356.1 -161.277)" fill="#ebebeb"/>
          <path id="Path_19481" data-name="Path 19481" d="M394.284,204.759s-1.187-5.69-1.086-5.868-2.658-6.9-2.658-6.9-.926-3.079-.926-3.067-12.572-2.124-12.572-2.124l-.593,1.9,16.766,21.186,1.721,9.1,1.78-2.48Z" transform="translate(-363.407 -160.382)" fill="#52b1e4"/>
          <path id="Path_19482" data-name="Path 19482" d="M414.882,250.157l-2.729-32.815-2.237-12.809a13.919,13.919,0,0,0-2.011-5.126l-6.526-3.779a28.738,28.738,0,0,1-1.869-2.5l3.091,7.9,1.086,6.307.67,14.47h0l3.56,19.424,3.489,42.717,7.582-1.483Z" transform="translate(-372.785 -162.957)" fill="#ebebeb"/>
          <path id="Path_19483" data-name="Path 19483" d="M404.59,211.925l1.465-10.768-4.717-5.529-1.869-2.5,2.9,8.336Z" transform="translate(-372.769 -162.957)" fill="#ebebeb"/>
          <path id="Path_19484" data-name="Path 19484" d="M393.893,247.569l11.4-16.209,19.834,6-15,19.412-18.629-6.057Z" transform="translate(-369.523 -178.505)" fill="#52b1e4"/>
          <path id="Path_19485" data-name="Path 19485" d="M437.745,239.872a.492.492,0,1,1-.492-.492.492.492,0,0,1,.492.492Z" transform="translate(-387.935 -181.767)" fill="#263238"/>
          <path id="Path_19486" data-name="Path 19486" d="M424.375,236.142a.492.492,0,1,1-.487-.492A.492.492,0,0,1,424.375,236.142Z" transform="translate(-382.498 -180.25)" fill="#263238"/>
          <path id="Path_19487" data-name="Path 19487" d="M409.378,213.79c-.03,0,.214,1.056.552,2.373a22.32,22.32,0,0,0,.664,2.314c.03,0-.219-1.056-.552-2.344S409.408,213.784,409.378,213.79Z" transform="translate(-376.798 -171.36)" fill="#263238"/>
          <path id="Path_19488" data-name="Path 19488" d="M412.909,223.757a2.51,2.51,0,0,1-.178,1.37,1.685,1.685,0,0,1-1.026.937,1.869,1.869,0,0,1-1.81-.386,4.746,4.746,0,0,1-1.133-3.423,2.088,2.088,0,0,1,1.3-1.78,1.881,1.881,0,0,1,2.142.926" transform="translate(-376.543 -174.053)" fill="#e0e0e0"/>
          <path id="Path_19489" data-name="Path 19489" d="M412.152,221.388a1.642,1.642,0,0,0-.3-.433,2.166,2.166,0,0,0-.486-.38,1.78,1.78,0,0,0-.789-.225,1.919,1.919,0,0,0-.481.047,1.584,1.584,0,0,0-.492.2,2.112,2.112,0,0,0-.73.884,2.7,2.7,0,0,0-.243,1.24,4.987,4.987,0,0,0,.243,1.329,3.75,3.75,0,0,0,1.056,1.78,1.78,1.78,0,0,0,.878.362,2.1,2.1,0,0,0,.866-.077h0a1.252,1.252,0,0,0,.552-.3,2.041,2.041,0,0,0,.368-.427,2.373,2.373,0,0,0,.3-.848,2.123,2.123,0,0,0,0-.593.638.638,0,0,0,0-.148.38.38,0,0,0,0-.053,3.284,3.284,0,0,1-.03.765,2.309,2.309,0,0,1-.309.819,1.9,1.9,0,0,1-.362.4,1.187,1.187,0,0,1-.516.273h0a1.827,1.827,0,0,1-1.638-.285,3.69,3.69,0,0,1-1.014-1.7,3.465,3.465,0,0,1,0-2.492,2.017,2.017,0,0,1,.682-.842,1.442,1.442,0,0,1,.457-.19,1.685,1.685,0,0,1,1.222.148,1.947,1.947,0,0,1,.487.356,3.353,3.353,0,0,1,.285.4Z" transform="translate(-376.493 -174.027)" fill="#263238"/>
          <path id="Path_19490" data-name="Path 19490" d="M413.8,223.606a2.486,2.486,0,0,1-.178,1.365,1.691,1.691,0,0,1-1.026.943,1.869,1.869,0,0,1-1.809-.386,4.747,4.747,0,0,1-1.133-3.423,2.077,2.077,0,0,1,1.293-1.78,1.887,1.887,0,0,1,2.148.92" transform="translate(-376.905 -173.991)" fill="#e0e0e0"/>
          <path id="Path_19491" data-name="Path 19491" d="M413.042,221.231a1.578,1.578,0,0,0-.3-.427,2.009,2.009,0,0,0-.487-.38,1.78,1.78,0,0,0-.795-.225,1.7,1.7,0,0,0-.481.047,1.472,1.472,0,0,0-.486.2,2.042,2.042,0,0,0-.73.884,2.659,2.659,0,0,0-.243,1.234,5.031,5.031,0,0,0,.243,1.335,3.779,3.779,0,0,0,1.056,1.78,1.78,1.78,0,0,0,.878.362,2.106,2.106,0,0,0,.866-.077h0a1.24,1.24,0,0,0,.558-.3,2.041,2.041,0,0,0,.368-.427,2.373,2.373,0,0,0,.3-.848,2.123,2.123,0,0,0,0-.593,1.28,1.28,0,0,0,0-.148.389.389,0,0,0,0-.053,3.124,3.124,0,0,1-.036.765,2.307,2.307,0,0,1-.308.819,1.723,1.723,0,0,1-.356.4,1.186,1.186,0,0,1-.516.273h0a1.828,1.828,0,0,1-1.638-.279,3.691,3.691,0,0,1-1.014-1.7,3.465,3.465,0,0,1,0-2.492,1.982,1.982,0,0,1,.682-.842,1.388,1.388,0,0,1,.457-.19,1.745,1.745,0,0,1,.457-.053,1.632,1.632,0,0,1,.759.2,1.844,1.844,0,0,1,.486.356A4.217,4.217,0,0,1,413.042,221.231Z" transform="translate(-376.855 -173.966)" fill="#263238"/>
          <path id="Path_19492" data-name="Path 19492" d="M413.328,221.846a1.186,1.186,0,0,1,1.359.374,2.011,2.011,0,0,1,.374,1.436,1.78,1.78,0,0,1-.2.748.991.991,0,0,1-.593.486,1.187,1.187,0,0,1-1.05-.3,2.13,2.13,0,0,1-.753-1.608.985.985,0,0,1,.593-.991" transform="translate(-378.054 -174.604)" fill="#e0e0e0"/>
          <path id="Path_19493" data-name="Path 19493" d="M413.049,221.965a.243.243,0,0,0-.089,0,.54.54,0,0,0-.22.142,1.187,1.187,0,0,0-.3.89,2.094,2.094,0,0,0,.487,1.311,1.781,1.781,0,0,0,.659.522,1,1,0,0,0,.908,0,1.252,1.252,0,0,0,.534-.736,2.52,2.52,0,0,0,.083-.831,1.78,1.78,0,0,0-.564-1.276,1.258,1.258,0,0,0-.9-.291,1.04,1.04,0,0,0-.249.065c-.053.03-.077.042-.077.047a1.66,1.66,0,0,1,.332-.065,1.187,1.187,0,0,1,.837.308A1.7,1.7,0,0,1,415,223.27a2.641,2.641,0,0,1-.089.8,1.187,1.187,0,0,1-.481.664.907.907,0,0,1-.8,0,1.738,1.738,0,0,1-.623-.487,2.046,2.046,0,0,1-.486-1.246,1.186,1.186,0,0,1,.255-.854A.96.96,0,0,1,413.049,221.965Z" transform="translate(-378.042 -174.574)" fill="#263238"/>
          <path id="Path_19494" data-name="Path 19494" d="M413.623,227.929a.35.35,0,0,1,.077-.184.824.824,0,0,1,.308-.344,2.372,2.372,0,0,1,.445-.19c.119-.042.2-.071.2-.089a.481.481,0,0,0-.214,0,1.417,1.417,0,0,0-.487.172.765.765,0,0,0-.332.415C413.582,227.846,413.605,227.935,413.623,227.929Z" transform="translate(-378.515 -176.777)" fill="#263238"/>
          <path id="Path_19495" data-name="Path 19495" d="M411.62,221.927a.456.456,0,0,0,.178.125,1.139,1.139,0,0,0,1.02-.077c.113-.077.166-.142.154-.154a2.664,2.664,0,0,1-.664.2A3.29,3.29,0,0,1,411.62,221.927Z" transform="translate(-377.711 -174.625)" fill="#263238"/>
          <path id="Path_19496" data-name="Path 19496" d="M394.536,235.366c-.593.172-1.27-.267-1.851-.042a.868.868,0,0,0,.67,1.6c.593-.273.73-1.127,1.3-1.465" transform="translate(-369.792 -180.091)" fill="#263238"/>
          <path id="Path_19497" data-name="Path 19497" d="M382.849,227.229a3.736,3.736,0,0,0,.54-.225l-.095-.2a2.451,2.451,0,0,1-1.952.237,3.607,3.607,0,0,1-1.934-1.993v-.042c-.214-.427-3.15-9.172-3.69-10.839a2.966,2.966,0,0,1,1.424-3.744c.083-.047,2.047-1.068,4.07,1.418,2.118,2.6,5.82,7.713,6.164,8.377l.16.285c.469.795,1.448,2.456.593,3.88a2.5,2.5,0,0,1-2.2,1.471v.214a2.7,2.7,0,0,0,2.409-1.578c.931-1.525-.095-3.263-.593-4.1l-.154-.273c-.344-.641-4.064-5.8-6.182-8.413s-4.319-1.483-4.343-1.471a3.239,3.239,0,0,0-1.525,4c.445,1.37,3.471,10.418,3.7,10.869v.042a3.785,3.785,0,0,0,2.053,2.106A2.48,2.48,0,0,0,382.849,227.229Z" transform="translate(-362.953 -169.812)" fill="#263238"/>
          <path id="Path_19498" data-name="Path 19498" d="M376.608,217.177a3.944,3.944,0,0,1,.095-1.157,3.559,3.559,0,0,1,.528-1.145,3.732,3.732,0,0,1,1.115-1.05,4.076,4.076,0,0,1,2.705-.5,4.592,4.592,0,0,1,1.115.356l-.071-.053a2.288,2.288,0,0,0-.2-.113,3.558,3.558,0,0,0-.825-.267,3.837,3.837,0,0,0-1.293-.036,3.957,3.957,0,0,0-1.489.516,3.685,3.685,0,0,0-1.145,1.092,3.56,3.56,0,0,0-.516,1.187,2.814,2.814,0,0,0-.071.866.509.509,0,0,0,.03.231C376.614,217.159,376.6,217.183,376.608,217.177Z" transform="translate(-363.446 -171.109)" fill="#263238"/>
          <path id="Path_19499" data-name="Path 19499" d="M373.25,192.849l9.837,12.186,8.81,5.529L374.8,189.01Z" transform="translate(-362.105 -161.281)" fill="#ebebeb"/>
          <path id="Path_19500" data-name="Path 19500" d="M356.951,208.366a17.3,17.3,0,0,0-2.373,6.574c-.13,1.3,3.109,25.7,3.471,26.8s4.669,3.839,5.933,4.39S380.9,251.89,387.3,251.8l1.371-12.073L372.21,236.98a13.914,13.914,0,0,0-2.925-2.2l-1.376-13.444L365.9,210.549S360.166,207,356.951,208.366Z" transform="translate(-354.509 -169.027)" fill="#ebebeb"/>
          <path id="Path_19501" data-name="Path 19501" d="M418.429,222.233c-.083,0-.967-3.56-1.976-7.974s-1.78-8.021-1.679-8.039.967,3.56,1.982,7.968S418.512,222.209,418.429,222.233Z" transform="translate(-378.99 -168.281)" fill="#263238"/>
          <path id="Path_19502" data-name="Path 19502" d="M367.058,220.359a1.027,1.027,0,0,0,.047.249c.047.166.077.427.13.748.107.67.261,1.637.457,2.889.386,2.527.949,6.182,1.649,10.733l-.065-.077a6.592,6.592,0,0,1,1.531.967c.486.386.961.8,1.436,1.24l-.059-.03,16.47,2.717h.131v.131c-.427,3.773-.884,7.843-1.365,12.073v.142h-.136a42.808,42.808,0,0,1-9.06-1.412c-3.8-.908-7.452-1.993-10.958-3.115-.872-.285-1.738-.593-2.593-.872a10.979,10.979,0,0,1-2.427-1.187c-.753-.463-1.489-.949-2.189-1.459a10.533,10.533,0,0,1-1.946-1.721,1.187,1.187,0,0,1-.279-.593c-.053-.22-.089-.421-.119-.629-.071-.415-.136-.825-.2-1.228-.119-.819-.237-1.62-.356-2.415l-.641-4.61c-.4-2.966-.765-5.755-1.08-8.306s-.593-4.829-.789-6.853c-.047-.5-.107-.991-.136-1.465a5.3,5.3,0,0,1,0-1.37,16.256,16.256,0,0,1,.558-2.32,17.7,17.7,0,0,1,1.276-3.038,7.884,7.884,0,0,1,.427-.742,1.67,1.67,0,0,1,.166-.237l-.142.255c-.089.166-.231.415-.4.754a19.4,19.4,0,0,0-1.216,3.044,16.436,16.436,0,0,0-.528,2.308,5.626,5.626,0,0,0,0,1.335c.036.469.095.955.148,1.46.22,2.017.51,4.307.837,6.841s.712,5.34,1.115,8.306q.314,2.231.653,4.61c.119.789.243,1.59.368,2.4l.2,1.228c.036.2.071.409.119.593a.98.98,0,0,0,.231.516,10.241,10.241,0,0,0,1.893,1.655c.694.51,1.424.991,2.171,1.448a10.876,10.876,0,0,0,2.373,1.187c.848.3,1.715.593,2.587.866,3.5,1.115,7.12,2.2,10.934,3.1a43.016,43.016,0,0,0,8.982,1.406l-.148.136c.487-4.23.949-8.306,1.382-12.073l.119.154-16.464-2.8h-.036c-.469-.439-.937-.854-1.418-1.234a6.4,6.4,0,0,0-1.465-.943l-.059-.03v-.053c-.659-4.562-1.187-8.223-1.554-10.756-.172-1.246-.309-2.219-.4-2.889-.042-.32-.071-.593-.095-.753A2.012,2.012,0,0,1,367.058,220.359Z" transform="translate(-354.465 -169.237)" fill="#263238"/>
          <path id="Path_19503" data-name="Path 19503" d="M368.877,217.214a10.2,10.2,0,0,1-.759-1.465,16.652,16.652,0,0,0-2.053-3.358,7.368,7.368,0,0,0-3.144-2.243,11.662,11.662,0,0,0-1.59-.344,1.1,1.1,0,0,1,.445-.047,4.332,4.332,0,0,1,1.216.184,6.936,6.936,0,0,1,3.3,2.254,13.688,13.688,0,0,1,2.023,3.459A7.984,7.984,0,0,1,368.877,217.214Z" transform="translate(-357.257 -169.717)" fill="#263238"/>
          <path id="Path_19504" data-name="Path 19504" d="M369.61,255.351a6.313,6.313,0,0,1,5.707-2.183,14.381,14.381,0,0,0-3.026.641A15.034,15.034,0,0,0,369.61,255.351Z" transform="translate(-360.625 -187.35)" fill="#263238"/>
          <path id="Path_19505" data-name="Path 19505" d="M372.76,257.263a6.117,6.117,0,0,1,4.088-4.153,15.278,15.278,0,0,0-2.373,1.78A16.019,16.019,0,0,0,372.76,257.263Z" transform="translate(-361.906 -187.351)" fill="#263238"/>
          <path id="Path_19506" data-name="Path 19506" d="M391.832,210.589a4.076,4.076,0,0,1-.682-.368l-1.851-1.109-6.354-3.928h0l-2.966-3.649c-2.717-3.37-5.156-6.419-6.847-8.561l-.042-.053v-.053l1.187-2.794.332-.748a.926.926,0,0,1,.136-.255,1.144,1.144,0,0,1-.083.279c-.071.208-.166.457-.279.765-.273.712-.641,1.661-1.1,2.83v-.107c1.732,2.106,4.2,5.132,6.924,8.508L383.176,205l-.036-.03,6.3,4.017,1.78,1.187A4.771,4.771,0,0,1,391.832,210.589Z" transform="translate(-362.04 -161.306)" fill="#263238"/>
          <path id="Path_19507" data-name="Path 19507" d="M403.976,214.53a4.633,4.633,0,0,1,.065-.8c.071-.558.16-1.282.273-2.16.243-1.827.593-4.373,1.02-7.238v.095c-.184-.344-.386-.712-.593-1.086-1.507-2.8-2.86-5.34-3.821-7.2l-1.121-2.2a5.642,5.642,0,0,1-.38-.825,4.829,4.829,0,0,1,.481.765l1.216,2.154c1.009,1.821,2.373,4.349,3.892,7.119.2.374.4.742.593,1.086v.1c-.433,2.86-.831,5.4-1.127,7.22-.148.872-.273,1.59-.368,2.148A3.617,3.617,0,0,1,403.976,214.53Z" transform="translate(-372.749 -162.957)" fill="#263238"/>
          <path id="Path_19508" data-name="Path 19508" d="M374.369,203.813l.5-.309-.51.309a30.852,30.852,0,0,1-2.213-4.153l-.107-.255c-.593-1.454-1.281-3.1-.991-4.693v-.03a3.121,3.121,0,0,1,1.086-1.78l.16-.142h.475v.92l.107.125-.107.1v.042h0a1.863,1.863,0,0,0-.528.973v.03a7.97,7.97,0,0,0,.926,4l.107.255a28.976,28.976,0,0,0,2.136,3.963Z" transform="translate(-361.184 -162.806)" fill="#263238"/>
          <path id="Path_19509" data-name="Path 19509" d="M413.26,272.34a2.055,2.055,0,0,1,.083.445c.042.32.1.747.172,1.281.148,1.115.344,2.729.593,4.746.457,3.993,1.021,9.493,1.537,15.627s.884,11.652,1.109,15.663c.107,2.005.19,3.631.231,4.746,0,.54.03.967.042,1.293a2.378,2.378,0,0,1,0,.451,2.247,2.247,0,0,1-.053-.445c0-.326-.059-.753-.1-1.293-.083-1.151-.2-2.765-.332-4.746-.279-4-.682-9.54-1.187-15.651s-1.062-11.64-1.489-15.645q-.294-2.964-.469-4.746c-.048-.534-.083-.961-.113-1.287A3.663,3.663,0,0,1,413.26,272.34Z" transform="translate(-378.378 -195.172)" fill="#263238"/>
          <path id="Path_19510" data-name="Path 19510" d="M391.942,295.8a3.984,3.984,0,0,1-.4.386c-.267.231-.67.564-1.187.955a35.337,35.337,0,0,1-4.117,2.83,21.685,21.685,0,0,1-2.48,1.222,15.659,15.659,0,0,1-2.142.688,9.719,9.719,0,0,1-1.5.255,1.692,1.692,0,0,1-.558,0c0-.053.783-.142,2-.487a16.814,16.814,0,0,0,2.094-.742,25.206,25.206,0,0,0,2.432-1.222c1.673-.967,3.1-2,4.153-2.735A14.945,14.945,0,0,1,391.942,295.8Z" transform="translate(-364.671 -204.714)" fill="#263238"/>
          <path id="Path_19511" data-name="Path 19511" d="M393.418,299.7a1.981,1.981,0,0,1-.32.475,11.132,11.132,0,0,1-1.026,1.187,16.773,16.773,0,0,1-9.024,4.8,11.227,11.227,0,0,1-1.554.19,2.376,2.376,0,0,1-.593,0c0-.059.807-.119,2.088-.4a18.787,18.787,0,0,0,4.782-1.78,19.086,19.086,0,0,0,4.153-2.966A18.609,18.609,0,0,1,393.418,299.7Z" transform="translate(-365.216 -206.299)" fill="#263238"/>
          <path id="Path_19512" data-name="Path 19512" d="M380.316,309.021A4.516,4.516,0,0,1,380,307.4a4.345,4.345,0,0,1,0-1.655,8.852,8.852,0,0,1,.332,3.281Z" transform="translate(-364.816 -208.757)" fill="#263238"/>
          <path id="Path_19513" data-name="Path 19513" d="M376.4,163.908a1.151,1.151,0,0,1-1.02-.694,3.992,3.992,0,0,1-.344-1.329c-.279-2.017-.552-4.04-.831-6.063a30.768,30.768,0,0,1-.421-5.168,11.013,11.013,0,0,1,1.525-4.746c.914-1.78,4.616-4.859,10.756-3.121" transform="translate(-362.321 -142.273)" fill="#263238"/>
          <path id="Path_19514" data-name="Path 19514" d="M375.517,166.4c-.083,0-3.281-.9-3.121,2.373s3.394,2.415,3.394,2.32S375.517,166.4,375.517,166.4Z" transform="translate(-361.755 -152.04)" fill="#ffbe9d"/>
          <path id="Path_19515" data-name="Path 19515" d="M375.267,170.609a.969.969,0,0,1-.148.089.593.593,0,0,1-.421.036,1.418,1.418,0,0,1-.712-1.228,1.821,1.821,0,0,1,.119-.813.647.647,0,0,1,.4-.457.291.291,0,0,1,.344.136c.047.089.03.154.047.16s.065-.059,0-.19a.3.3,0,0,0-.136-.2.427.427,0,0,0-.314-.071.813.813,0,0,0-.593.534,1.993,1.993,0,0,0-.148.914,1.477,1.477,0,0,0,.9,1.365.635.635,0,0,0,.516-.113C375.267,170.687,375.279,170.615,375.267,170.609Z" transform="translate(-362.288 -152.765)" fill="#eb996e"/>
          <path id="Path_19516" data-name="Path 19516" d="M393.993,163.461c0-2.3-.427-7.019-.848-11.272a8.858,8.858,0,0,0-8.977-7.98h-.457c-4.942.38-7.375,4.782-6.858,9.712l.694,15.71,11.777,6.461-.042-7.042S394.023,168.213,393.993,163.461Z" transform="translate(-363.543 -143.06)" fill="#ffbe9d"/>
          <path id="Path_19517" data-name="Path 19517" d="M393.594,184.933a11.023,11.023,0,0,1-6.224-1.643s1.5,3.441,6.229,2.931Z" transform="translate(-367.848 -158.955)" fill="#eb996e"/>
          <path id="Path_19518" data-name="Path 19518" d="M400.783,162.471a.676.676,0,0,1-.641.694.647.647,0,0,1-.712-.593.676.676,0,0,1,.641-.694.653.653,0,0,1,.712.593Z" transform="translate(-372.753 -150.245)" fill="#263238"/>
          <path id="Path_19519" data-name="Path 19519" d="M400.968,160.688c-.083.089-.593-.285-1.335-.267s-1.258.392-1.341.3.047-.2.273-.374a1.887,1.887,0,0,1,1.074-.35,1.78,1.78,0,0,1,1.062.32C400.933,160.486,401.01,160.646,400.968,160.688Z" transform="translate(-372.28 -149.482)" fill="#263238"/>
          <path id="Path_19520" data-name="Path 19520" d="M388.816,162.721a.67.67,0,0,1-.641.694.641.641,0,0,1-.706-.593.671.671,0,0,1,.641-.694.641.641,0,0,1,.706.593Z" transform="translate(-367.888 -150.347)" fill="#263238"/>
          <path id="Path_19521" data-name="Path 19521" d="M388.7,160.619c-.071.095-.629-.214-1.353-.119s-1.187.522-1.3.445,0-.2.231-.4a1.822,1.822,0,0,1,1.026-.463,1.78,1.78,0,0,1,1.092.2C388.642,160.447,388.737,160.619,388.7,160.619Z" transform="translate(-367.293 -149.508)" fill="#263238"/>
          <path id="Path_19522" data-name="Path 19522" d="M394.937,166.911a4.746,4.746,0,0,1,1.187-.237c.19,0,.362-.059.392-.19a.95.95,0,0,0-.136-.552l-.593-1.406a24.231,24.231,0,0,1-1.305-3.7,25.7,25.7,0,0,1,1.6,3.56c.19.5.374.967.552,1.418a1.086,1.086,0,0,1,.113.736.457.457,0,0,1-.3.273,1.121,1.121,0,0,1-.314.053,4.744,4.744,0,0,1-1.193.042Z" transform="translate(-370.74 -149.82)" fill="#263238"/>
          <path id="Path_19523" data-name="Path 19523" d="M391.565,172c.119,0,.136.783.825,1.329s1.531.451,1.543.564-.19.154-.546.172a1.964,1.964,0,0,1-1.281-.421,1.733,1.733,0,0,1-.641-1.121C391.429,172.19,391.512,172,391.565,172Z" transform="translate(-369.509 -154.363)" fill="#263238"/>
          <path id="Path_19524" data-name="Path 19524" d="M388.321,155.37c-.065.2-.8.119-1.655.237s-1.543.362-1.661.19.065-.273.344-.475a2.777,2.777,0,0,1,1.222-.451,2.813,2.813,0,0,1,1.3.125C388.191,155.121,388.351,155.275,388.321,155.37Z" transform="translate(-366.871 -147.386)" fill="#263238"/>
          <path id="Path_19525" data-name="Path 19525" d="M400.461,157.491c-.125.166-.629,0-1.234,0s-1.115.131-1.24-.036,0-.255.249-.415a1.685,1.685,0,0,1,1-.291,1.709,1.709,0,0,1,.991.314C400.443,157.254,400.514,157.426,400.461,157.491Z" transform="translate(-372.146 -148.16)" fill="#263238"/>
          <path id="Path_19526" data-name="Path 19526" d="M387.007,143.068c-1.679-.664-3.382-.314-5.168-.053a8.175,8.175,0,0,0-3.8,1.513,7.333,7.333,0,0,0-2.8,5.7,21.054,21.054,0,0,0,.706,6.408l.178-.042a3.061,3.061,0,0,0-.03,1.649,1.068,1.068,0,0,0,1.311.718c.593-.261.593-1.086.593-1.738a47.072,47.072,0,0,1,0-6.6A6,6,0,0,1,380.3,146.2c2.332-1.554,5.369-.285,6.4-.107,1.584-1.353,3.061-.3,4.023.878A6.047,6.047,0,0,0,387.007,143.068Z" transform="translate(-362.905 -142.441)" fill="#263238"/>
          <path id="Path_19527" data-name="Path 19527" d="M393.471,145.978c1.044,0,1.875-.7,3.032-.51.7.113,1.406,1.258,2.017,2.682a2.059,2.059,0,0,0-.593-3.767,1.9,1.9,0,0,0,.926.3.647.647,0,0,0,.653-.593.866.866,0,0,0-.386-.593,5.073,5.073,0,0,0-7.119.819" transform="translate(-369.731 -142.325)" fill="#263238"/>
          <path id="Path_19528" data-name="Path 19528" d="M399.823,144.549c0,.042-.338-.178-.9-.356a3.631,3.631,0,0,0-2.225,0,3.679,3.679,0,0,0-1.78,1.371c-.332.486-.433.848-.486.837a1.745,1.745,0,0,1,.3-.949,3.382,3.382,0,0,1,4.248-1.477C399.58,144.228,399.847,144.525,399.823,144.549Z" transform="translate(-370.719 -142.859)" fill="#455a64"/>
          <path id="Path_19529" data-name="Path 19529" d="M399.613,148.912a4.045,4.045,0,0,0,0-1.1,2.374,2.374,0,0,0-.522-1.038,2.487,2.487,0,0,0-1.187-.724,3.281,3.281,0,0,0-2.533.439c-.593.368-.878.7-.914.664s.208-.409.8-.842a3.56,3.56,0,0,1,1.151-.558,3.092,3.092,0,0,1,1.578,0,2.622,2.622,0,0,1,1.347.837,2.374,2.374,0,0,1,.516,1.187A1.418,1.418,0,0,1,399.613,148.912Z" transform="translate(-370.729 -143.645)" fill="#455a64"/>
          <path id="Path_19530" data-name="Path 19530" d="M374.5,157.981a1.906,1.906,0,0,1-.125-.433,6.177,6.177,0,0,1-.107-1.222,8.152,8.152,0,0,1,.985-3.91,8.265,8.265,0,0,1,2.735-2.966,6.652,6.652,0,0,1,1.08-.593,1.14,1.14,0,0,1,.433-.136c0,.047-.593.3-1.394.9a8.68,8.68,0,0,0-3.625,6.7C374.436,157.346,374.555,157.975,374.5,157.981Z" transform="translate(-362.52 -144.895)" fill="#455a64"/>
          <path id="Path_19531" data-name="Path 19531" d="M375.806,160.83A7.327,7.327,0,0,1,378,154.25a10.891,10.891,0,0,0-2.189,6.58Z" transform="translate(-363.101 -147.144)" fill="#455a64"/>
          <path id="Path_19532" data-name="Path 19532" d="M458.634,205.76c-.136-.362-.825-.439-.825-.439l.136-.208a.991.991,0,0,0,.071-.991l-.077-.148a1.667,1.667,0,0,0-.795-.593s.5-.688.38-1.026a1.62,1.62,0,0,0-1.548-.908,24.113,24.113,0,0,0-3.233.961.718.718,0,0,1-.955-.528,10.228,10.228,0,0,0-1.038-2.966c-.593-1-1.287-1.032-1.709-.937a.332.332,0,0,0-.237.451,17.431,17.431,0,0,1,.753,2.088c.113.534-.273,4.4-.273,4.4l-1.964,2.64,4.45,6.425,1.958-2.907,4.195-1.845s.795-1,.712-1.347a1.051,1.051,0,0,0-.415-.552l.522-.73a2.237,2.237,0,0,0-.107-.837Z" transform="translate(-392.23 -164.914)" fill="#ffbe9d"/>
          <path id="Path_19533" data-name="Path 19533" d="M461.1,206.3l-.083.053-.261.148-.955.534-1.424.771c-.273.142-.546.309-.86.439a1.133,1.133,0,0,1-1.032,0,.778.778,0,0,1-.32-.445,1.133,1.133,0,0,1,0-.528,1.448,1.448,0,0,1,.54-.8,5.562,5.562,0,0,1,.73-.487l.647-.386.943-.558.261-.142.089-.047-.083.065-.249.16-.926.593-.641.4a6.252,6.252,0,0,0-.712.481,1.429,1.429,0,0,0-.5.759.807.807,0,0,0,.285.866.854.854,0,0,0,.469.125,1.418,1.418,0,0,0,.475-.107,9.431,9.431,0,0,0,.848-.427l1.436-.759.973-.5.267-.136Z" transform="translate(-395.816 -167.724)" fill="#eb996e"/>
          <path id="Path_19534" data-name="Path 19534" d="M462.407,210.536a.866.866,0,0,1-.2.119c-.13.071-.32.172-.564.285-.481.237-1.151.54-1.91.842a4.286,4.286,0,0,1-.564.2,1.1,1.1,0,0,1-.593,0,.878.878,0,0,1-.629-.694.83.83,0,0,1,.148-.593.535.535,0,0,1,.113-.131l.053-.036a1.1,1.1,0,0,0-.136.184.86.86,0,0,0-.113.593.825.825,0,0,0,.593.593,1.073,1.073,0,0,0,.528,0c.178-.047.362-.13.552-.2.753-.3,1.43-.593,1.916-.813l.593-.261A1.007,1.007,0,0,1,462.407,210.536Z" transform="translate(-396.549 -170.034)" fill="#eb996e"/>
          <path id="Path_19535" data-name="Path 19535" d="M463.064,213.356a.657.657,0,0,1-.2.077l-.558.184-1.851.558c-.184.047-.356.107-.54.136a.937.937,0,0,1-.528-.036.593.593,0,0,1-.344-.344.682.682,0,0,1,0-.421.884.884,0,0,1,.386-.451.593.593,0,0,1,.2-.089q-.083.064-.172.119a.919.919,0,0,0-.338.445.594.594,0,0,0,0,.374.475.475,0,0,0,.3.279.866.866,0,0,0,.481,0,2.269,2.269,0,0,0,.522-.136c.724-.214,1.382-.4,1.857-.528l.593-.154Z" transform="translate(-396.986 -171.026)" fill="#eb996e"/>
          <path id="Path_19536" data-name="Path 19536" d="M463.515,215.907a4.8,4.8,0,0,1-.635.065l-1.525.083h-.439a1.625,1.625,0,0,1-.415,0,.593.593,0,0,1-.338-.184.374.374,0,0,1-.089-.332.552.552,0,0,1,.3-.368.279.279,0,0,1,.166-.042,1.183,1.183,0,0,0-.148.077.534.534,0,0,0-.249.344.332.332,0,0,0,.083.267.5.5,0,0,0,.3.148,1.78,1.78,0,0,0,.4,0h.433c.593,0,1.139-.047,1.531-.053A3.857,3.857,0,0,1,463.515,215.907Z" transform="translate(-397.414 -171.904)" fill="#eb996e"/>
          <path id="Path_19537" data-name="Path 19537" d="M457.611,213.734a5.689,5.689,0,0,0-1.068-.279,5.511,5.511,0,0,0-1.1.047A2.427,2.427,0,0,1,457.611,213.734Z" transform="translate(-395.533 -171.179)" fill="#eb996e"/>
          <path id="Path_19538" data-name="Path 19538" d="M411.491,258.336l.926-.237s.32-1.548.73-1.875,4.485-2.183,5.381-2.67,4.4-2.082,4.835-1.24c.5.961-.931,1.78-1.7,2.118s-2.966,1.222-2.533,1.75,5.381.291,5.381.291l.593-.831s1.086,1.026.961,1.922a3.86,3.86,0,0,1-.487,1.465h-.368a1.021,1.021,0,0,1,.042,1.062,9.857,9.857,0,0,1-.973,1.216,3.631,3.631,0,0,1-2.32,1.7c-.208.053-8.348.765-8.348.765l-2.729.273Z" transform="translate(-377.41 -186.93)" fill="#ffbe9d"/>
        </g>
        <g id="freepik--Shield--inject-58" transform="translate(23.202 33.165)">
          <path id="Path_19539" data-name="Path 19539" d="M103.847,53.242,82.24,45.28,60.846,53.135c-2.735,1.323-5.126,2.112-5.126,4.746V70.857A50.032,50.032,0,0,0,62.768,96.73a44.242,44.242,0,0,0,19.685,17.8c8.745-2.913,15.271-10.679,19.264-17.33a50.074,50.074,0,0,0,7.048-25.861V59.673C108.766,55.953,106.843,54.138,103.847,53.242Z" transform="translate(-36.527 -40.039)" fill="#52b1e4"/>
          <g id="Group_29192" data-name="Group 29192" transform="translate(19.192 5.241)" opacity="0.8">
            <path id="Path_19540" data-name="Path 19540" d="M103.847,53.242,82.24,45.28,60.846,53.135c-2.735,1.323-5.126,2.112-5.126,4.746V70.857A50.032,50.032,0,0,0,62.768,96.73a44.242,44.242,0,0,0,19.685,17.8c8.745-2.913,15.271-10.679,19.264-17.33a50.074,50.074,0,0,0,7.048-25.861V59.673C108.766,55.953,106.843,54.138,103.847,53.242Z" transform="translate(-55.719 -45.28)" fill="#fff"/>
          </g>
          <path id="Path_19541" data-name="Path 19541" d="M103.167,63.214,85.831,56.83,68.667,63.125c-2.2,1.062-4.117,1.7-4.117,3.791v10.43a40.142,40.142,0,0,0,5.66,20.765A35.473,35.473,0,0,0,86,112.421c7.013-2.338,12.251-8.573,15.455-13.9a40.2,40.2,0,0,0,5.654-20.765v-9.38C107.112,65.391,105.57,63.932,103.167,63.214Z" transform="translate(-40.118 -44.736)" fill="#52b1e4"/>
          <path id="Path_19542" data-name="Path 19542" d="M104.547,90.8H94.354V80.6H88.5V90.8H78.3v5.856H88.5v10.193h5.856V96.654h10.193Z" transform="translate(-45.711 -54.404)" fill="#fff"/>
          <path id="Path_19543" data-name="Path 19543" d="M109.113,106.665s.095-.142.3-.409l.172-.22c.059-.089.107-.19.172-.3a4.581,4.581,0,0,0,.386-.765c.059-.154.131-.308.19-.481s.1-.362.154-.552a4.056,4.056,0,0,0,.125-.593,5.932,5.932,0,0,0,.095-.682,12.833,12.833,0,0,0-.148-3.269,29.451,29.451,0,0,0-3.014-8.49,66.063,66.063,0,0,0-6.455-10.038,102.734,102.734,0,0,0-9.623-10.81A118.224,118.224,0,0,0,78.832,59.291c-2.373-1.738-4.847-3.417-7.47-5a71.79,71.79,0,0,0-8.306-4.349,38.564,38.564,0,0,0-9.232-2.9,16.3,16.3,0,0,0-4.924-.119,9.036,9.036,0,0,0-2.373.688,5.933,5.933,0,0,0-3.222,3.607,9.213,9.213,0,0,0-.415,2.438,16.327,16.327,0,0,0,.682,4.883,38.617,38.617,0,0,0,3.922,8.846,73.066,73.066,0,0,0,5.268,7.748c1.875,2.427,3.827,4.7,5.82,6.852A118.31,118.31,0,0,0,70.757,93.3a102.7,102.7,0,0,0,11.866,8.306A65.855,65.855,0,0,0,93.3,106.879a29.416,29.416,0,0,0,8.751,2.023,12.7,12.7,0,0,0,3.269-.225,5.439,5.439,0,0,0,.664-.166,3.56,3.56,0,0,0,.593-.2l.534-.214c.16-.077.309-.166.451-.243a4.07,4.07,0,0,0,.718-.469c.1-.071.2-.136.273-.2l.2-.2c.243-.231.374-.344.374-.344l-.356.356-.2.2c-.077.065-.172.131-.273.208a4.42,4.42,0,0,1-.759.534l-.451.249-.534.22a3.737,3.737,0,0,1-.593.2,6.888,6.888,0,0,1-.67.178,13.012,13.012,0,0,1-3.281.243,29.451,29.451,0,0,1-8.787-2,65.9,65.9,0,0,1-10.739-5.251,103.322,103.322,0,0,1-11.866-8.306A117.882,117.882,0,0,1,58.435,82.145c-1.993-2.154-3.951-4.432-5.832-6.864a72.237,72.237,0,0,1-5.286-7.766,38.955,38.955,0,0,1-3.945-8.9,16.428,16.428,0,0,1-.682-4.936,9.457,9.457,0,0,1,.421-2.5,6.929,6.929,0,0,1,1.27-2.213,6.858,6.858,0,0,1,2.053-1.543,9.493,9.493,0,0,1,2.427-.706,16.488,16.488,0,0,1,4.984.125,39.033,39.033,0,0,1,9.279,2.907,72.566,72.566,0,0,1,8.306,4.367c2.628,1.59,5.12,3.275,7.481,5.013A118.552,118.552,0,0,1,91.582,69.97,103.344,103.344,0,0,1,101.2,80.816,65.378,65.378,0,0,1,107.642,90.9a29.315,29.315,0,0,1,2.966,8.5,12.922,12.922,0,0,1,.136,3.287,4.712,4.712,0,0,1-.1.682,4.815,4.815,0,0,1-.131.623c-.059.19-.113.38-.16.552a4.5,4.5,0,0,1-.2.481,4.883,4.883,0,0,1-.4.771c-.065.107-.119.208-.172.291l-.178.22Z" transform="translate(-31.226 -40.57)" fill="#52b1e4"/>
          <path id="Path_19544" data-name="Path 19544" d="M115.372,88.364a4,4,0,0,0-.047-.5v-.279a1.975,1.975,0,0,0-.071-.332,4.633,4.633,0,0,0-.225-.831c-.053-.148-.107-.314-.178-.486l-.249-.51a3.733,3.733,0,0,0-.32-.546,5.276,5.276,0,0,0-.38-.593,12.584,12.584,0,0,0-2.29-2.373,29.326,29.326,0,0,0-7.879-4.313,66.181,66.181,0,0,0-11.5-3.2,103.363,103.363,0,0,0-14.4-1.608,117.783,117.783,0,0,0-16.612.362c-2.919.279-5.891.682-8.9,1.246a72.429,72.429,0,0,0-9.089,2.272,38.854,38.854,0,0,0-8.81,3.987,16.221,16.221,0,0,0-3.761,3.186,9.19,9.19,0,0,0-1.317,2.1,5.933,5.933,0,0,0,0,4.835,9.19,9.19,0,0,0,1.317,2.1,16.392,16.392,0,0,0,3.756,3.192,38.777,38.777,0,0,0,8.816,4.011,73.245,73.245,0,0,0,9.089,2.278c3.014.593,5.986.961,8.9,1.24a117.866,117.866,0,0,0,16.612.362A102.382,102.382,0,0,0,92.21,102.3a66.81,66.81,0,0,0,11.5-3.192,29.374,29.374,0,0,0,7.879-4.367,12.582,12.582,0,0,0,2.29-2.373,6.423,6.423,0,0,0,.386-.593,4.284,4.284,0,0,0,.314-.546l.255-.51c.065-.172.119-.332.172-.486a4.632,4.632,0,0,0,.225-.831,1.823,1.823,0,0,1,.071-.332,1.457,1.457,0,0,0,0-.279c.03-.332.047-.5.047-.5v.789a1.924,1.924,0,0,1-.065.332,4.153,4.153,0,0,1-.219.837c-.053.154-.1.32-.172.492s-.16.338-.249.516a3.975,3.975,0,0,1-.314.552,6.406,6.406,0,0,1-.38.593,12.833,12.833,0,0,1-2.29,2.373,29.367,29.367,0,0,1-7.885,4.361,66.223,66.223,0,0,1-11.51,3.227,102.584,102.584,0,0,1-14.4,1.685,118.06,118.06,0,0,1-16.612-.344c-2.919-.273-5.9-.676-8.9-1.24a71.787,71.787,0,0,1-9.113-2.278,38.9,38.9,0,0,1-8.864-4,16.416,16.416,0,0,1-3.8-3.227A9.492,9.492,0,0,1,29.238,90.8a6.894,6.894,0,0,1-.528-2.5,6.775,6.775,0,0,1,.534-2.492,9.273,9.273,0,0,1,1.347-2.148A16.535,16.535,0,0,1,34.317,80.5a38.973,38.973,0,0,1,8.858-4,72.294,72.294,0,0,1,9.113-2.284c3.02-.593,6-.961,8.9-1.24A118.063,118.063,0,0,1,77.8,72.63a101.583,101.583,0,0,1,14.393,1.691,65.778,65.778,0,0,1,11.563,3.216,29.367,29.367,0,0,1,7.885,4.355,12.833,12.833,0,0,1,2.29,2.373,6.405,6.405,0,0,1,.38.593,4.806,4.806,0,0,1,.314.552l.249.522c.071.166.119.332.172.487a4.284,4.284,0,0,1,.22.837,2.008,2.008,0,0,0,.065.338v.279C115.366,88.216,115.372,88.364,115.372,88.364Z" transform="translate(-25.542 -51.103)" fill="#52b1e4"/>
          <path id="Path_19545" data-name="Path 19545" d="M109.73,37.819l-.421-.273-.231-.178c-.089-.053-.2-.095-.3-.148a4.864,4.864,0,0,0-.795-.332l-.492-.16-.564-.113a3.95,3.95,0,0,0-.623-.083,6.266,6.266,0,0,0-.682-.047,12.91,12.91,0,0,0-3.257.374,29.356,29.356,0,0,0-8.235,3.56,66.014,66.014,0,0,0-9.57,7.119A102.119,102.119,0,0,0,74.429,57.943a117.026,117.026,0,0,0-9.89,13.349c-1.566,2.474-3.073,5.073-4.473,7.8a71.707,71.707,0,0,0-3.791,8.579,38.647,38.647,0,0,0-2.255,9.41,16.316,16.316,0,0,0,.22,4.918,9.35,9.35,0,0,0,.848,2.326,5.974,5.974,0,0,0,3.821,2.966,9.089,9.089,0,0,0,2.468.243,16.267,16.267,0,0,0,4.818-1.009,38.747,38.747,0,0,0,8.555-4.527A71.1,71.1,0,0,0,82.118,96.2c2.3-2.035,4.432-4.153,6.437-6.277a117.384,117.384,0,0,0,10.466-12.9,102.757,102.757,0,0,0,7.523-12.364,66.3,66.3,0,0,0,4.521-11.047,29.558,29.558,0,0,0,1.412-8.87,12.815,12.815,0,0,0-.451-3.245c-.047-.231-.148-.439-.214-.653a4.255,4.255,0,0,0-.237-.593q-.131-.267-.249-.516c-.095-.154-.19-.3-.279-.433a4.326,4.326,0,0,0-.516-.688c-.077-.089-.148-.184-.22-.255l-.208-.19-.374-.344s.136.107.386.332l.214.184c.071.071.142.16.225.255a4.635,4.635,0,0,1,.528.682c.089.136.19.279.279.439s.166.332.255.516a3.416,3.416,0,0,1,.243.593c.071.214.172.421.225.653a12.917,12.917,0,0,1,.469,3.263,29.439,29.439,0,0,1-1.388,8.9,65.621,65.621,0,0,1-4.5,11.077,101.612,101.612,0,0,1-7.487,12.4,116.286,116.286,0,0,1-10.466,12.94c-2.005,2.142-4.153,4.254-6.443,6.295a72.231,72.231,0,0,1-7.386,5.8,38.492,38.492,0,0,1-8.6,4.551,16.369,16.369,0,0,1-4.877,1.026,9.528,9.528,0,0,1-2.521-.249,7,7,0,0,1-2.3-1.115,6.888,6.888,0,0,1-1.643-1.958,9.4,9.4,0,0,1-.872-2.373,16.339,16.339,0,0,1-.22-4.978,38.9,38.9,0,0,1,2.26-9.457A72.579,72.579,0,0,1,59.9,79c1.406-2.735,2.913-5.34,4.485-7.808A117.47,117.47,0,0,1,74.3,57.836,102.265,102.265,0,0,1,84.461,47.489a65.261,65.261,0,0,1,9.605-7.119,29.16,29.16,0,0,1,8.306-3.56,12.673,12.673,0,0,1,3.269-.362,6.23,6.23,0,0,1,.688.053,4.117,4.117,0,0,1,.629.089l.593.119c.178.053.338.113.492.166a4.847,4.847,0,0,1,.8.338c.107.059.214.1.3.154l.231.16Z" transform="translate(-35.729 -36.446)" fill="#52b1e4"/>
          <path id="Path_19546" data-name="Path 19546" d="M26.117,129.064a1.6,1.6,0,1,1-1.139-.476,1.608,1.608,0,0,1,1.139.476Z" transform="translate(-23.37 -73.921)" fill="#52b1e4"/>
          <path id="Path_19547" data-name="Path 19547" d="M178.8,44.258a1.608,1.608,0,1,1-1.608-1.608A1.608,1.608,0,0,1,178.8,44.258Z" transform="translate(-85.275 -38.969)" fill="#52b1e4"/>
          <path id="Path_19548" data-name="Path 19548" d="M44.519,138.019a.409.409,0,1,1-.409-.409A.409.409,0,0,1,44.519,138.019Z" transform="translate(-31.638 -77.59)" fill="#52b1e4"/>
          <path id="Path_19549" data-name="Path 19549" d="M59.229,62.039a.409.409,0,1,1-.409-.409A.409.409,0,0,1,59.229,62.039Z" transform="translate(-37.621 -46.688)" fill="#52b1e4"/>
          <path id="Path_19550" data-name="Path 19550" d="M166.769,98.969a.409.409,0,1,1-.409-.409A.409.409,0,0,1,166.769,98.969Z" transform="translate(-81.359 -61.708)" fill="#52b1e4"/>
          <path id="Path_19551" data-name="Path 19551" d="M176.339,66.843a.409.409,0,1,1-.409-.4.4.4,0,0,1,.409.4Z" transform="translate(-85.251 -48.645)" fill="#52b1e4"/>
        </g>
      </g>
    </g>
  </g>
</svg>
