<svg xmlns="http://www.w3.org/2000/svg" width="232.966" height="116.104" viewBox="0 0 232.966 116.104">
  <g id="NoAvailableBooking" transform="translate(-36.96 -81.339)">
    <path id="Path_19084" data-name="Path 19084" d="M271.957,90.41H139.2a5.1,5.1,0,0,0-5.166,5.948l12.7,96.816a6.971,6.971,0,0,0,6.731,5.948H286.224a5.1,5.1,0,0,0,5.166-5.948l-12.7-96.816A6.971,6.971,0,0,0,271.957,90.41Z" transform="translate(-21.87 -2.045)" fill="#231f20"/>
    <path id="Path_19085" data-name="Path 19085" d="M286.127,199.378H153.365a7.358,7.358,0,0,1-7.071-6.25l-12.7-96.816a5.584,5.584,0,0,1,1.286-4.492A5.5,5.5,0,0,1,139.1,90H271.86a7.358,7.358,0,0,1,7.071,6.2l12.7,96.816a5.584,5.584,0,0,1-1.286,4.492,5.5,5.5,0,0,1-4.221,1.874ZM139.1,90.658a4.825,4.825,0,0,0-3.7,1.611,4.942,4.942,0,0,0-1.131,3.927l12.7,96.816a6.661,6.661,0,0,0,6.4,5.654H286.127a4.825,4.825,0,0,0,3.7-1.611,4.911,4.911,0,0,0,1.131-3.958l-12.7-96.816a6.661,6.661,0,0,0-6.4-5.654Z" transform="translate(-21.773 -1.952)" fill="#231f20"/>
    <path id="Path_19086" data-name="Path 19086" d="M121.369,110.32H267.755l-14.608,87.351a7.327,7.327,0,0,1-6.971,5.948H111.734a4.9,4.9,0,0,1-4.957-5.948Z" transform="translate(-15.716 -6.534)" fill="#fff"/>
    <path id="Path_19087" data-name="Path 19087" d="M246.1,203.875H111.636a5.329,5.329,0,0,1-4.159-1.843,5.468,5.468,0,0,1-1.146-4.523l14.592-87.344a.356.356,0,0,1,.349-.294H267.657a.372.372,0,0,1,.271.124.38.38,0,0,1,.077.287L253.4,197.624a7.745,7.745,0,0,1-7.3,6.25Zm-124.56-93.3-14.515,87.049a4.794,4.794,0,0,0,.984,3.95,4.647,4.647,0,0,0,3.625,1.549H246.1a6.971,6.971,0,0,0,6.6-5.654l14.522-86.933Z" transform="translate(-15.618 -6.433)" fill="#231f20"/>
    <path id="Path_19088" data-name="Path 19088" d="M134.182,90.409H268.648a4.9,4.9,0,0,1,4.957,5.948l-1.549,9.465H125.67l1.549-9.465A7.319,7.319,0,0,1,134.182,90.409Z" transform="translate(-20.002 -2.045)" fill="#52b1e4"/>
    <path id="Path_19089" data-name="Path 19089" d="M271.912,106.087H125.526a.333.333,0,0,1-.271-.132.318.318,0,0,1-.077-.287l1.549-9.457A7.691,7.691,0,0,1,134.069,90H268.535a5.352,5.352,0,0,1,4.167,1.843,5.468,5.468,0,0,1,1.139,4.523l-1.549,9.457a.349.349,0,0,1-.38.263Zm-145.952-.713H271.618l1.549-9.163a4.771,4.771,0,0,0-.984-3.95,4.647,4.647,0,0,0-3.625-1.549H134.069a6.971,6.971,0,0,0-6.591,5.654Z" transform="translate(-19.889 -1.952)" fill="#231f20"/>
    <path id="Path_19090" data-name="Path 19090" d="M141.817,193.361h-.062a.349.349,0,0,1-.287-.4l11.726-70.2a.364.364,0,0,1,.411-.294.356.356,0,0,1,.287.411l-11.726,70.2A.356.356,0,0,1,141.817,193.361Z" transform="translate(-23.563 -9.273)" fill="#231f20"/>
    <path id="Path_19091" data-name="Path 19091" d="M167.135,193.348h-.062a.349.349,0,0,1-.294-.4l11.734-70.2a.356.356,0,1,1,.7.116l-11.734,70.2a.349.349,0,0,1-.341.287Z" transform="translate(-29.269 -9.26)" fill="#231f20"/>
    <path id="Path_19092" data-name="Path 19092" d="M192.447,193.361h-.054a.349.349,0,0,1-.294-.4l11.726-70.2a.364.364,0,0,1,.411-.294.349.349,0,0,1,.287.411l-11.726,70.2A.356.356,0,0,1,192.447,193.361Z" transform="translate(-34.978 -9.273)" fill="#231f20"/>
    <path id="Path_19093" data-name="Path 19093" d="M217.767,193.348H217.7a.341.341,0,0,1-.287-.4l11.726-70.2a.356.356,0,1,1,.7.116l-11.726,70.2A.356.356,0,0,1,217.767,193.348Z" transform="translate(-40.687 -9.26)" fill="#231f20"/>
    <path id="Path_19094" data-name="Path 19094" d="M243.077,193.348h-.054a.349.349,0,0,1-.294-.4l11.734-70.2a.356.356,0,1,1,.7.116l-11.734,70.2A.356.356,0,0,1,243.077,193.348Z" transform="translate(-46.394 -9.26)" fill="#231f20"/>
    <path id="Path_19095" data-name="Path 19095" d="M268.4,193.348h-.062a.349.349,0,0,1-.287-.4l11.726-70.2a.356.356,0,1,1,.7.116l-11.688,70.2A.356.356,0,0,1,268.4,193.348Z" transform="translate(-52.103 -9.26)" fill="#231f20"/>
    <path id="Path_19096" data-name="Path 19096" d="M141.817,193.361h-.062a.349.349,0,0,1-.287-.4l11.726-70.2a.364.364,0,0,1,.411-.294.356.356,0,0,1,.287.411l-11.726,70.2A.356.356,0,0,1,141.817,193.361Z" transform="translate(-23.563 -9.273)" fill="none" stroke="#d1d3d4" stroke-linecap="round" stroke-linejoin="round" stroke-width="0.92"/>
    <path id="Path_19097" data-name="Path 19097" d="M167.135,193.348h-.062a.349.349,0,0,1-.294-.4l11.734-70.2a.356.356,0,1,1,.7.116l-11.734,70.2a.349.349,0,0,1-.341.287Z" transform="translate(-29.269 -9.26)" fill="none" stroke="#d1d3d4" stroke-linecap="round" stroke-linejoin="round" stroke-width="0.92"/>
    <path id="Path_19098" data-name="Path 19098" d="M192.447,193.361h-.054a.349.349,0,0,1-.294-.4l11.726-70.2a.364.364,0,0,1,.411-.294.349.349,0,0,1,.287.411l-11.726,70.2A.356.356,0,0,1,192.447,193.361Z" transform="translate(-34.978 -9.273)" fill="none" stroke="#d1d3d4" stroke-linecap="round" stroke-linejoin="round" stroke-width="0.92"/>
    <path id="Path_19099" data-name="Path 19099" d="M217.767,193.348H217.7a.341.341,0,0,1-.287-.4l11.726-70.2a.356.356,0,1,1,.7.116l-11.726,70.2A.356.356,0,0,1,217.767,193.348Z" transform="translate(-40.687 -9.26)" fill="none" stroke="#d1d3d4" stroke-linecap="round" stroke-linejoin="round" stroke-width="0.92"/>
    <path id="Path_19100" data-name="Path 19100" d="M243.077,193.348h-.054a.349.349,0,0,1-.294-.4l11.734-70.2a.356.356,0,1,1,.7.116l-11.734,70.2A.356.356,0,0,1,243.077,193.348Z" transform="translate(-46.394 -9.26)" fill="none" stroke="#d1d3d4" stroke-linecap="round" stroke-linejoin="round" stroke-width="0.92"/>
    <path id="Path_19101" data-name="Path 19101" d="M268.4,193.348h-.062a.349.349,0,0,1-.287-.4l11.726-70.2a.356.356,0,1,1,.7.116l-11.688,70.2A.356.356,0,0,1,268.4,193.348Z" transform="translate(-52.103 -9.26)" fill="none" stroke="#d1d3d4" stroke-linecap="round" stroke-linejoin="round" stroke-width="0.92"/>
    <path id="Path_19102" data-name="Path 19102" d="M262.035,144.184H134.191a.356.356,0,1,1,0-.7H262.035a.356.356,0,1,1,0,.7Z" transform="translate(-21.831 -14.01)" fill="#231f20"/>
    <path id="Path_19103" data-name="Path 19103" d="M257.975,168.484H130.131a.356.356,0,1,1,0-.7H257.975a.356.356,0,1,1,0,.7Z" transform="translate(-20.915 -19.489)" fill="#231f20"/>
    <path id="Path_19104" data-name="Path 19104" d="M253.93,192.793H126.086a.356.356,0,1,1,0-.713H253.93a.356.356,0,0,1,0,.713Z" transform="translate(-20.015 -24.969)" fill="#231f20"/>
    <line id="Line_116" data-name="Line 116" x2="127.844" transform="translate(112.36 129.817)" fill="none" stroke="#d1d3d4" stroke-linecap="round" stroke-linejoin="round" stroke-width="0.92"/>
    <path id="Path_19105" data-name="Path 19105" d="M262.035,144.184H134.191a.356.356,0,1,1,0-.7H262.035a.356.356,0,1,1,0,.7Z" transform="translate(-21.831 -14.01)" fill="none" stroke="#d1d3d4" stroke-linecap="round" stroke-linejoin="round" stroke-width="0.92"/>
    <line id="Line_117" data-name="Line 117" x2="127.844" transform="translate(109.216 148.646)" fill="none" stroke="#d1d3d4" stroke-linecap="round" stroke-linejoin="round" stroke-width="0.92"/>
    <path id="Path_19106" data-name="Path 19106" d="M257.975,168.484H130.131a.356.356,0,1,1,0-.7H257.975a.356.356,0,1,1,0,.7Z" transform="translate(-20.915 -19.489)" fill="none" stroke="#d1d3d4" stroke-linecap="round" stroke-linejoin="round" stroke-width="0.92"/>
    <line id="Line_118" data-name="Line 118" x2="127.844" transform="translate(106.071 167.467)" fill="none" stroke="#d1d3d4" stroke-linecap="round" stroke-linejoin="round" stroke-width="0.92"/>
    <path id="Path_19107" data-name="Path 19107" d="M253.93,192.793H126.086a.356.356,0,1,1,0-.713H253.93a.356.356,0,0,1,0,.713Z" transform="translate(-20.015 -24.969)" fill="none" stroke="#d1d3d4" stroke-linecap="round" stroke-linejoin="round" stroke-width="0.92"/>
    <path id="Path_19108" data-name="Path 19108" d="M181.248,160.1a.341.341,0,0,1-.271-.124.356.356,0,0,1,.046-.5l13.67-11.378a.356.356,0,0,1,.5.046.364.364,0,0,1-.046.5l-13.663,11.37A.364.364,0,0,1,181.248,160.1Z" transform="translate(-32.454 -15.036)" fill="#52b1e4"/>
    <path id="Path_19109" data-name="Path 19109" d="M193.562,160.1a.356.356,0,0,1-.263-.116l-9.867-11.378a.356.356,0,0,1,0-.5.341.341,0,0,1,.5.039l9.867,11.37a.356.356,0,0,1,0,.5.318.318,0,0,1-.232.085Z" transform="translate(-33.002 -15.036)" fill="#52b1e4"/>
    <path id="Path_19110" data-name="Path 19110" d="M253.587,185.756a.356.356,0,0,1-.271-.132.349.349,0,0,1,.046-.5l13.632-11.37a.356.356,0,1,1,.457.542l-13.624,11.37A.356.356,0,0,1,253.587,185.756Z" transform="translate(-48.764 -20.814)" fill="#52b1e4"/>
    <path id="Path_19111" data-name="Path 19111" d="M265.9,185.763a.341.341,0,0,1-.263-.124l-9.867-11.37a.356.356,0,0,1,0-.5.364.364,0,0,1,.5.039l9.86,11.37a.356.356,0,0,1,0,.5.372.372,0,0,1-.232.085Z" transform="translate(-49.312 -20.821)" fill="#52b1e4"/>
    <path id="Path_19112" data-name="Path 19112" d="M272.88,226.093l19-14.863H280.889a6.8,6.8,0,0,0-6.444,5.53Z" transform="translate(-53.193 -29.287)" fill="#fff"/>
    <path id="Path_19113" data-name="Path 19113" d="M272.777,226.348a.356.356,0,0,1-.178-.046.364.364,0,0,1-.17-.364l1.549-9.341a7.172,7.172,0,0,1,6.793-5.817h10.991a.341.341,0,0,1,.333.24.333.333,0,0,1-.116.387l-18.991,14.863a.356.356,0,0,1-.209.077Zm8.009-14.863a6.436,6.436,0,0,0-6.1,5.228l-1.41,8.442,17.473-13.67Z" transform="translate(-53.091 -29.185)" fill="#231f20"/>
    <path id="Path_19114" data-name="Path 19114" d="M259.144,99.6a1.549,1.549,0,0,1-.775-.209,9.682,9.682,0,1,1,13.57-12.617,1.552,1.552,0,0,1-2.788,1.363,6.584,6.584,0,1,0-9.225,8.582,1.549,1.549,0,0,1-.775,2.881Z" transform="translate(-48.837 -0.002)" fill="#231f20"/>
    <path id="Path_19115" data-name="Path 19115" d="M214.151,99.6a1.549,1.549,0,0,1-.775-.209,9.685,9.685,0,1,1,13.57-12.633,1.552,1.552,0,1,1-2.788,1.363,6.583,6.583,0,1,0-9.217,8.582,1.549,1.549,0,0,1-.775,2.881Z" transform="translate(-38.69 0)" fill="#231f20"/>
    <path id="Path_19116" data-name="Path 19116" d="M169.161,99.6a1.479,1.479,0,0,1-.775-.209,9.682,9.682,0,1,1,13.562-12.617,1.549,1.549,0,1,1-2.781,1.363,6.587,6.587,0,1,0-9.225,8.582,1.549,1.549,0,0,1-.775,2.881Z" transform="translate(-28.546)" fill="#231f20"/>
    <path id="Path_19117" data-name="Path 19117" d="M166.886,86.53a.418.418,0,0,1-.194-.046.4.4,0,0,1-.147-.534,7.482,7.482,0,0,1,2.982-2.626.387.387,0,1,1,.325.7,6.909,6.909,0,0,0-2.633,2.324A.387.387,0,0,1,166.886,86.53Z" transform="translate(-29.207 -0.434)" fill="#fff"/>
    <path id="Path_19118" data-name="Path 19118" d="M212.458,86.536a.387.387,0,0,1-.333-.581,7.435,7.435,0,0,1,2.99-2.626.387.387,0,0,1,.511.186.38.38,0,0,1-.186.511,6.909,6.909,0,0,0-2.633,2.324A.387.387,0,0,1,212.458,86.536Z" transform="translate(-39.483 -0.441)" fill="#fff"/>
    <path id="Path_19119" data-name="Path 19119" d="M256.968,86.535a.441.441,0,0,1-.194-.046.4.4,0,0,1-.139-.534,7.482,7.482,0,0,1,2.974-2.626.387.387,0,0,1,.519.186.38.38,0,0,1-.186.511,6.909,6.909,0,0,0-2.633,2.324.4.4,0,0,1-.341.186Z" transform="translate(-49.519 -0.44)" fill="#fff"/>
    <line id="Line_119" data-name="Line 119" y1="0.178" x2="3.354" transform="translate(36.96 102.655)" fill="#fff"/>
    <line id="Line_120" data-name="Line 120" y1="0.186" x2="3.485" transform="translate(37.262 108.588)" fill="#fff"/>
    <path id="Path_19136" data-name="Path 19136" d="M74.333,120.731l-2.463-.217,1.588-4.074Z" transform="translate(-7.871 -7.914)" fill="#fff"/>
  </g>
</svg>
