<svg xmlns="http://www.w3.org/2000/svg" width="19.918" height="20" viewBox="0 0 19.918 20">
  <g id="Alert" transform="translate(-784 -12463)">
    <rect id="Rectangle_479" data-name="Rectangle 479" width="16" height="16" transform="translate(784 12463)" fill="none"/>
    <path id="Path_1" data-name="Path 1" d="M18.754,17.5H12.5a2.5,2.5,0,0,1-5.005,0H1.236a1.2,1.2,0,0,1-1.126-.875A1.334,1.334,0,0,1,.485,15.25a5.031,5.031,0,0,0,2-4V7.5A7.508,7.508,0,0,1,17.5,7.5v3.75a5.031,5.031,0,0,0,2,4,1.183,1.183,0,0,1,.375,1.375A1.2,1.2,0,0,1,18.754,17.5Z" transform="translate(783.938 12463)" fill="#fff" fill-rule="evenodd"/>
  </g>
</svg>
